<?xml version="1.0" encoding="utf-8"?>
<!-- Generator: Adobe Illustrator 26.0.0, SVG Export Plug-In . SVG Version: 6.00 Build 0)  -->
<svg version="1.1" id="Layer_1" xmlns="http://www.w3.org/2000/svg" xmlns:xlink="http://www.w3.org/1999/xlink" x="0px" y="0px"
	 viewBox="0 0 200 144" style="enable-background:new 0 0 200 144;" xml:space="preserve">
<style type="text/css">
	.st0{fill:#F8FAFD;}
	.st1{fill:#D9DDEA;}
	.st2{fill:#1E2022;}
</style>
<path class="st0" d="M196,0H4C1.8,0,0,1.8,0,4v136c0,2.2,1.8,4,4,4h192c2.2,0,4-1.8,4-4V4C200,1.8,198.2,0,196,0z"/>
<path class="st1" d="M28.7,60h87c2.2,0,4,1.8,4,4v16c0,2.2-1.8,4-4,4h-87c-2.2,0-4-1.8-4-4V64C24.7,61.8,26.5,60,28.7,60z"/>
<path class="st2" d="M172.5,76.1c-0.2,0.7-0.4,1.4-0.7,2l0.6,1.1h-1.3H171h-0.1c0.3-0.4,0.5-0.8,0.8-1.3c0.3-0.7,0.5-1.4,0.7-2.1
	c0.1-0.5,0.1-1.1,0.1-1.6c0-3.8-2.4-7-5.8-8.1l-0.1-0.1l-0.1-0.1l-2.7-4.7l-2.7,4.7c0.7-0.2,1.4-0.4,2.1-0.4l0.6-1l0.6,1l0.1,0.1
	l0.1,0.1c-0.2,0-0.5,0-0.7,0c-0.2,0-0.5,0-0.7,0c-0.8,0.1-1.5,0.2-2.2,0.5c-3.4,1.2-5.8,4.4-5.8,8.1c0,0.5,0.1,1.1,0.1,1.6l-0.1,0.1
	l-0.1,0.1l-2.8,4.8h5.6c-0.6-0.5-1-1-1.5-1.6h-1.3l0.6-1.1L156,78l0.1-0.1c0.2,0.5,0.5,0.9,0.8,1.3c0.4,0.6,1,1.2,1.5,1.6
	c1.5,1.2,3.4,2,5.5,2c2.1,0,4-0.7,5.5-2h0.2h0.2h5.6L172.5,76.1z M170.6,76.1c-0.3,1.2-1,2.3-1.9,3.1h-0.1h-0.1h-9.2
	c0.9,0.8,2,1.4,3.2,1.6h2.7h0.4h0.4c-0.7,0.2-1.4,0.3-2.1,0.3s-1.5-0.1-2.1-0.3c-1-0.3-2-0.9-2.7-1.6c-0.9-0.8-1.5-1.9-1.9-3.1
	l0.1-0.1l0.1-0.1l4.7-8.1c-1.1,0.3-2.1,0.9-2.9,1.7l-1.8,3.1l-0.2,0.3l-0.1,0.3c0.3-1.7,1.2-3.2,2.4-4.2c0.8-0.6,1.7-1.1,2.7-1.4
	c0.6-0.1,1.1-0.2,1.8-0.2c0.6,0,1.2,0.1,1.8,0.2l0.1,0.1l0.1,0.1l4.7,8.1c0.1-0.5,0.2-1.1,0.2-1.6c0-0.6-0.1-1.2-0.2-1.7l-1.8-3.1
	l-0.2-0.3l-0.2-0.3c1.3,1.1,2.2,2.5,2.4,4.2c0.1,0.4,0.1,0.8,0.1,1.2C170.8,74.9,170.8,75.5,170.6,76.1z"/>
</svg>
