<?xml version="1.0" encoding="utf-8"?>
<!-- Generator: Adobe Illustrator 26.0.0, SVG Export Plug-In . SVG Version: 6.00 Build 0)  -->
<svg version="1.1" id="Layer_1" xmlns="http://www.w3.org/2000/svg" xmlns:xlink="http://www.w3.org/1999/xlink" x="0px" y="0px"
	 viewBox="0 0 200 144" style="enable-background:new 0 0 200 144;" xml:space="preserve">
<style type="text/css">
	.st0{fill:#F8FAFD;}
	.st1{fill:#FFFFFF;}
	.st2{fill:#71869D;fill-opacity:0.7;}
	.st3{fill:#D9DDEA;}
</style>
<path class="st0" d="M196,0H4C1.8,0,0,1.8,0,4v136c0,2.2,1.8,4,4,4h192c2.2,0,4-1.8,4-4V4C200,1.8,198.2,0,196,0z"/>
<path class="st1" d="M200,144h-66c-2.2,0-4-1.8-4-4V4c0-2.2,1.8-4,4-4l66,0V144z"/>
<path class="st2" d="M194,20L194,20c0,2.8-2.2,5-5,5h-21c-2.8,0-5-2.2-5-5l0,0c0-2.8,2.2-5,5-5h21C191.8,15,194,17.2,194,20z"/>
<path class="st3" d="M192,48L192,48c0,1.7-1.3,3-3,3h-44c-1.7,0-3-1.3-3-3l0,0c0-1.7,1.3-3,3-3h44C190.7,45,192,46.3,192,48z"/>
<path class="st3" d="M192,65L192,65c0,1.7-1.3,3-3,3h-33c-1.7,0-3-1.3-3-3l0,0c0-1.7,1.3-3,3-3h33C190.7,62,192,63.3,192,65z"/>
<path class="st3" d="M192,82L192,82c0,1.7-1.3,3-3,3h-22c-1.7,0-3-1.3-3-3l0,0c0-1.7,1.3-3,3-3h22C190.7,79,192,80.3,192,82z"/>
<path class="st3" d="M192,99L192,99c0,1.7-1.3,3-3,3h-40c-1.7,0-3-1.3-3-3l0,0c0-1.7,1.3-3,3-3h40C190.7,96,192,97.3,192,99z"/>
<path class="st3" d="M192,116L192,116c0,1.7-1.3,3-3,3h-44c-1.7,0-3-1.3-3-3l0,0c0-1.7,1.3-3,3-3h44C190.7,113,192,114.3,192,116z"
	/>
</svg>
