<?xml version="1.0" encoding="utf-8"?>
<!-- Generator: Adobe Illustrator 26.0.0, SVG Export Plug-In . SVG Version: 6.00 Build 0)  -->
<svg version="1.1" id="Layer_1" xmlns="http://www.w3.org/2000/svg" xmlns:xlink="http://www.w3.org/1999/xlink" x="0px" y="0px"
	 viewBox="0 0 200 144" style="enable-background:new 0 0 200 144;" xml:space="preserve">
<style type="text/css">
	.st0{fill:none;}
	.st1{fill:#F8FAFD;}
	.st2{fill:#9CAABA;fill-opacity:0.5;}
	.st3{fill:#FFFFFF;}
	.st4{fill:#71869D;}
	.st5{fill:#71869D;fill-opacity:0.7;}
</style>
<rect y="0" class="st0" width="200" height="144"/>
<path class="st1" d="M196,0H4C1.8,0,0,1.8,0,4v136c0,2.2,1.8,4,4,4h192c2.2,0,4-1.8,4-4V4C200,1.8,198.2,0,196,0z"/>
<path class="st2" d="M196,0H4C1.8,0,0,1.8,0,4v136c0,2.2,1.8,4,4,4h192c2.2,0,4-1.8,4-4V4C200,1.8,198.2,0,196,0z"/>
<g>
	<g>
		<g>
			<path class="st3" d="M85.4,52.3h-7.3c-2,0-3.6-1.6-3.6-3.6c0-2,1.6-3.6,3.6-3.6h7.3c2,0,3.6,1.6,3.6,3.6
				C89.1,50.6,87.4,52.3,85.4,52.3z"/>
			<path class="st3" d="M121.9,96h-7.3c-2,0-3.6-1.6-3.6-3.6s1.6-3.6,3.6-3.6h7.3c2,0,3.6,1.6,3.6,3.6S123.9,96,121.9,96z"/>
			<path class="st3" d="M121.9,52.3H100c-2,0-3.6-1.6-3.6-3.6c0-2,1.6-3.6,3.6-3.6h21.9c2,0,3.6,1.6,3.6,3.6
				C125.5,50.6,123.9,52.3,121.9,52.3z"/>
			<path class="st3" d="M107.3,66.9H78.1c-2,0-3.6-1.6-3.6-3.6s1.6-3.6,3.6-3.6h29.2c2,0,3.6,1.6,3.6,3.6S109.3,66.9,107.3,66.9z"/>
			<path class="st3" d="M98.1,96h-20c-2,0-3.6-1.6-3.6-3.6s1.6-3.6,3.6-3.6h20c2,0,3.6,1.6,3.6,3.6S100.1,96,98.1,96z"/>
			<path class="st3" d="M92.7,81.4H78.1c-2,0-3.6-1.6-3.6-3.6c0-2,1.6-3.6,3.6-3.6h14.6c2,0,3.6,1.6,3.6,3.6
				C96.4,79.8,94.7,81.4,92.7,81.4z"/>
		</g>
	</g>
	<path class="st3" d="M90.7,104.4h-6.6c-0.7,0-1.3,0.6-1.3,1.3v6.6c0,0.7,0.6,1.3,1.3,1.3h6.6c0.7,0,1.3-0.6,1.3-1.3v-6.6
		C92,104.9,91.4,104.4,90.7,104.4z"/>
	<path class="st3" d="M103.3,104.4h-6.7c-0.7,0-1.3,0.6-1.3,1.3v6.6c0,0.7,0.6,1.3,1.3,1.3h6.6c0.7,0,1.3-0.6,1.3-1.3v-6.6
		C104.6,104.9,104.1,104.4,103.3,104.4z"/>
	<path class="st4" d="M115.9,104.4h-6.6c-0.7,0-1.3,0.6-1.3,1.3v6.6c0,0.7,0.6,1.3,1.3,1.3h6.6c0.7,0,1.3-0.6,1.3-1.3v-6.6
		C117.3,104.9,116.6,104.4,115.9,104.4z"/>
	<path class="st3" d="M77,107.3c0.1-0.1,0.1-0.3,0-0.5c-0.1-0.1-0.3-0.1-0.5,0l-2,2c-0.1,0.1-0.1,0.3,0,0.5l1.8,2
		c0.1,0.1,0.3,0.2,0.5,0s0.2-0.3,0-0.5l-1.7-1.8L77,107.3z"/>
	<path class="st3" d="M123,107.3c-0.1-0.1-0.1-0.3,0-0.5c0.1-0.1,0.3-0.1,0.5,0l2,2c0.1,0.1,0.1,0.3,0,0.5l-1.8,2
		c-0.1,0.1-0.3,0.2-0.5,0s-0.2-0.3,0-0.5l1.7-1.8L123,107.3z"/>
	<path class="st3" d="M113.4,107.1h-0.7l-1,0.6v0.7l0.9-0.6h0v3.2h0.7V107.1L113.4,107.1z"/>
	<path class="st5" d="M121.9,37.7H78.1c-2,0-3.6-1.6-3.6-3.6c0-2,1.6-3.6,3.6-3.6h43.8c2,0,3.6,1.6,3.6,3.6
		C125.5,36.1,123.9,37.7,121.9,37.7z"/>
</g>
</svg>
