<?xml version="1.0" encoding="utf-8"?>
<!-- Generator: Adobe Illustrator 26.0.0, SVG Export Plug-In . SVG Version: 6.00 Build 0)  -->
<svg version="1.1" id="Layer_1" xmlns="http://www.w3.org/2000/svg" xmlns:xlink="http://www.w3.org/1999/xlink" x="0px" y="0px"
	 viewBox="0 0 200 144" style="enable-background:new 0 0 200 144;" xml:space="preserve">
<style type="text/css">
	.st0{fill:#F8FAFD;}
	.st1{fill:#71869D;}
</style>
<path class="st0" d="M196,0H4C1.8,0,0,1.8,0,4v136c0,2.2,1.8,4,4,4h192c2.2,0,4-1.8,4-4V4C200,1.8,198.2,0,196,0z"/>
<g id="_18._google_ads_logo">
	<path class="st1" d="M66.2,85.8c-3.4,5.9-1.4,13.4,4.5,16.8c5.9,3.4,13.4,1.4,16.8-4.5c1.1-1.9,1.6-4,1.6-6.2
		c0-6.8-5.5-12.3-12.3-12.3C72.5,79.7,68.4,82,66.2,85.8z"/>
	<path class="st1" d="M84.7,53.8l-13.9,24c7.8-3.3,16.9,0.3,20.2,8.1c0.6,1.3,0.9,2.8,1.1,4.2l6-10.5C86.8,59.9,85.1,58,84.7,53.8
		L84.7,53.8z"/>
	<path class="st1" d="M133.8,85.8c-0.8-1.3-23.3-40.5-23.8-41c-4-5.5-11.7-6.8-17.2-2.8c-5.2,3.7-6.7,10.9-3.4,16.4
		c-0.2,0-0.8-1.3,23,39.8c3.4,5.9,10.9,7.9,16.8,4.5C135.2,99.3,137.2,91.7,133.8,85.8z"/>
</g>
</svg>
