<?xml version="1.0" encoding="utf-8"?>
<!-- Generator: Adobe Illustrator 26.0.0, SVG Export Plug-In . SVG Version: 6.00 Build 0)  -->
<svg version="1.1" id="Layer_1" xmlns="http://www.w3.org/2000/svg" xmlns:xlink="http://www.w3.org/1999/xlink" x="0px" y="0px"
	 viewBox="0 0 200 144" style="enable-background:new 0 0 200 144;" xml:space="preserve">
<style type="text/css">
	.st0{fill:#F8FAFD;}
	.st1{fill:#71869D;}
	.st2{fill:#D9DDEA;}
</style>
<path class="st0" d="M196,0H4C1.8,0,0,1.8,0,4v136c0,2.2,1.8,4,4,4h192c2.2,0,4-1.8,4-4V4C200,1.8,198.2,0,196,0z"/>
<g>
	<path class="st1" d="M112.3,79c-1,0-2-0.4-2.7-1.1c-1.5-1.5-1.5-4,0-5.5l11.8-11.8c1.3-1.3,2-3.1,2-4.9s-0.7-3.6-2-4.9
		c-1.3-1.3-3.1-2-4.9-2c-1.9,0-3.6,0.7-4.9,2L99.7,62.5c-1.5,1.5-4,1.5-5.5,0c-1.5-1.5-1.5-4,0-5.5L106,45.1
		c2.8-2.8,6.5-4.3,10.4-4.3c3.9,0,7.6,1.5,10.4,4.3c2.8,2.8,4.3,6.5,4.3,10.4c0,3.9-1.5,7.6-4.3,10.4L115,77.8
		C114.3,78.6,113.3,79,112.3,79z"/>
</g>
<g>
	<path class="st1" d="M83.6,103.2c-3.9,0-7.6-1.5-10.4-4.3c-2.8-2.8-4.3-6.5-4.3-10.4s1.5-7.6,4.3-10.4L85,66.2c1.5-1.5,4-1.5,5.5,0
		c1.5,1.5,1.5,4,0,5.5L78.6,83.5c-1.3,1.3-2,3.1-2,4.9s0.7,3.6,2,4.9c1.3,1.3,3.1,2,4.9,2c1.9,0,3.6-0.7,4.9-2l11.8-11.8
		c1.5-1.5,4-1.5,5.5,0s1.5,4,0,5.5L94,98.9C91.2,101.6,87.5,103.2,83.6,103.2L83.6,103.2z"/>
</g>
<g>
	<path class="st2" d="M87.7,88.2c-1,0-2-0.4-2.7-1.1c-1.5-1.5-1.5-4,0-5.5L109.5,57c1.5-1.5,4-1.5,5.5,0c1.5,1.5,1.5,4,0,5.5
		L90.5,87C89.7,87.8,88.7,88.2,87.7,88.2L87.7,88.2z"/>
</g>
</svg>
