<?xml version="1.0" encoding="utf-8"?>
<!-- Generator: Adobe Illustrator 26.0.0, SVG Export Plug-In . SVG Version: 6.00 Build 0)  -->
<svg version="1.1" id="Layer_1" xmlns="http://www.w3.org/2000/svg" xmlns:xlink="http://www.w3.org/1999/xlink" x="0px" y="0px"
	 viewBox="0 0 200 144" style="enable-background:new 0 0 200 144;" xml:space="preserve">
<style type="text/css">
	.st0{fill:#F8FAFD;}
	.st1{fill:#D9DDEA;}
	.st2{fill:#71869D;}
	.st3{fill:#FFFFFF;}
</style>
<path class="st0" d="M196,0.2H4c-2.2,0-4,1.8-4,4v136c0,2.2,1.8,4,4,4h192c2.2,0,4-1.8,4-4V4.2C200,1.9,198.2,0.2,196,0.2z"/>
<path class="st1" d="M76,60H58.9c-1.9,0-3.4,1.5-3.4,3.4v17.1c0,1.9,1.5,3.4,3.4,3.4H76c1.9,0,3.4-1.5,3.4-3.4V63.4
	C79.4,61.5,77.9,60,76,60z"/>
<path class="st1" d="M108.6,60H91.4c-1.9,0-3.4,1.5-3.4,3.4v17.1c0,1.9,1.5,3.4,3.4,3.4h17.1c1.9,0,3.4-1.5,3.4-3.4V63.4
	C112,61.5,110.5,60,108.6,60z"/>
<path class="st2" d="M141.1,60H124c-1.9,0-3.4,1.5-3.4,3.4v17.1c0,1.9,1.5,3.4,3.4,3.4h17.1c1.9,0,3.4-1.5,3.4-3.4V63.4
	C144.6,61.5,143,60,141.1,60z"/>
<path class="st1" d="M40.6,67.5c0.3-0.3,0.3-0.9,0-1.2c-0.3-0.3-0.9-0.3-1.2,0l-5.1,5.1c-0.3,0.3-0.3,0.8,0,1.2l4.7,5.1
	c0.3,0.3,0.9,0.4,1.2,0.1c0.3-0.3,0.4-0.9,0.1-1.2L36,72L40.6,67.5z"/>
<path class="st1" d="M159.4,67.5c-0.3-0.3-0.3-0.9,0-1.2c0.3-0.3,0.9-0.3,1.2,0l5.1,5.1c0.3,0.3,0.3,0.8,0,1.2l-4.7,5.1
	c-0.3,0.3-0.9,0.4-1.2,0.1c-0.3-0.3-0.4-0.9-0.1-1.2L164,72L159.4,67.5z"/>
<path class="st3" d="M134.7,67.2H133l-2.5,1.6v1.7l2.3-1.5h0.1v8.2h1.8V67.2z"/>
</svg>
