<?xml version="1.0" encoding="utf-8"?>
<!-- Generator: Adobe Illustrator 26.0.0, SVG Export Plug-In . SVG Version: 6.00 Build 0)  -->
<svg version="1.1" id="Layer_1" xmlns="http://www.w3.org/2000/svg" xmlns:xlink="http://www.w3.org/1999/xlink" x="0px" y="0px"
	 viewBox="0 0 200 144" style="enable-background:new 0 0 200 144;" xml:space="preserve">
<style type="text/css">
	.st0{clip-path:url(#SVGID_00000070813074841406497220000014335608596611919245_);}
	.st1{fill:#F8FAFD;}
	.st2{fill:#FFFFFF;}
	.st3{fill:#E5E9F2;fill-opacity:0.6;}
	.st4{fill:#D9DDEA;}
	.st5{fill:#E5E9F2;}
	.st6{fill:#71869D;}
</style>
<g>
	<g>
		<defs>
			<rect id="SVGID_1_" y="0" width="200" height="144"/>
		</defs>
		<clipPath id="SVGID_00000158715889935882010110000003045996047941043848_">
			<use xlink:href="#SVGID_1_"  style="overflow:visible;"/>
		</clipPath>
		<g style="clip-path:url(#SVGID_00000158715889935882010110000003045996047941043848_);">
			<path class="st1" d="M196,0H4C1.8,0,0,1.8,0,4v136c0,2.2,1.8,4,4,4h192c2.2,0,4-1.8,4-4V4C200,1.8,198.2,0,196,0z"/>
			<g>
				<path class="st2" d="M167.2,58H32.8c-1.5,0-2.8,1.1-2.8,2.4v83.1c0,1.4,1.3,2.4,2.8,2.4h134.4c1.5,0,2.8-1.1,2.8-2.4V60.4
					C170,59.1,168.7,58,167.2,58z"/>
			</g>
			<path class="st3" d="M40,64h120c2.2,0,4,1.8,4,4v16c0,2.2-1.8,4-4,4H40c-2.2,0-4-1.8-4-4V68C36,65.8,37.8,64,40,64z"/>
			<path class="st4" d="M71,72h78c2.2,0,4,1.8,4,4l0,0c0,2.2-1.8,4-4,4H71c-2.2,0-4-1.8-4-4l0,0C67,73.8,68.8,72,71,72z"/>
			<path class="st4" d="M71,100h78c2.2,0,4,1.8,4,4l0,0c0,2.2-1.8,4-4,4H71c-2.2,0-4-1.8-4-4l0,0C67,101.8,68.8,100,71,100z"/>
			<path class="st4" d="M71,122h78c2.2,0,4,1.8,4,4l0,0c0,2.2-1.8,4-4,4H71c-2.2,0-4-1.8-4-4l0,0C67,123.8,68.8,122,71,122z"/>
			<path class="st5" d="M34,30h14c2.2,0,4,1.8,4,4v14c0,2.2-1.8,4-4,4H34c-2.2,0-4-1.8-4-4V34C30,31.8,31.8,30,34,30z"/>
			<circle class="st6" cx="41" cy="41" r="1.5"/>
			<circle class="st6" cx="41" cy="46" r="1.5"/>
			<circle class="st6" cx="41" cy="36" r="1.5"/>
		</g>
	</g>
</g>
</svg>
