<?xml version="1.0" encoding="utf-8"?>
<!-- Generator: Adobe Illustrator 26.0.0, SVG Export Plug-In . SVG Version: 6.00 Build 0)  -->
<svg version="1.1" id="Layer_1" xmlns="http://www.w3.org/2000/svg" xmlns:xlink="http://www.w3.org/1999/xlink" x="0px" y="0px"
	 viewBox="0 0 200 144" style="enable-background:new 0 0 200 144;" xml:space="preserve">
<style type="text/css">
	.st0{fill:none;}
	.st1{fill:#F8FAFD;}
	.st2{fill:#9CAABA;fill-opacity:0.5;}
	.st3{fill:#71869D;fill-opacity:0.7;}
	.st4{fill:#FFFFFF;}
</style>
<rect y="0" class="st0" width="200" height="144"/>
<path class="st1" d="M196,0H4C1.8,0,0,1.8,0,4v136c0,2.2,1.8,4,4,4h192c2.2,0,4-1.8,4-4V4C200,1.8,198.2,0,196,0z"/>
<path class="st2" d="M196,0H4C1.8,0,0,1.8,0,4v136c0,2.2,1.8,4,4,4h192c2.2,0,4-1.8,4-4V4C200,1.8,198.2,0,196,0z"/>
<g>
	<path class="st3" d="M71.9,35.7h36.6c1.7,0,3,1.4,3,3v6.1c0,1.7-1.4,3-3,3H71.9c-1.7,0-3-1.4-3-3v-6.1C68.9,37,70.2,35.7,71.9,35.7
		z"/>
	<g>
		<path class="st4" d="M78,60h-6.1c-1.7,0-3-1.4-3-3c0-1.7,1.4-3,3-3H78c1.7,0,3,1.4,3,3C81.1,58.7,79.7,60,78,60z"/>
		<path class="st4" d="M108.5,60H90.2c-1.7,0-3-1.4-3-3c0-1.7,1.4-3,3-3h18.3c1.7,0,3,1.4,3,3C111.5,58.7,110.2,60,108.5,60z"/>
		<path class="st4" d="M96.3,72.2H71.9c-1.7,0-3-1.4-3-3c0-1.7,1.4-3,3-3h24.4c1.7,0,3,1.4,3,3C99.4,70.9,98,72.2,96.3,72.2z"/>
		<path class="st4" d="M88.6,96.6H71.9c-1.7,0-3-1.4-3-3s1.4-3,3-3h16.7c1.7,0,3,1.4,3,3S90.3,96.6,88.6,96.6z"/>
		<path class="st4" d="M84.1,84.4H71.9c-1.7,0-3-1.4-3-3s1.4-3,3-3h12.2c1.7,0,3,1.4,3,3S85.8,84.4,84.1,84.4z"/>
	</g>
	<path class="st3" d="M129.8,85H129c-0.6,0-1.1-0.4-1.3-1c-0.3-1.1-0.8-2.1-1.3-3.1c-0.3-0.5-0.2-1.2,0.2-1.6l0.6-0.5
		c0.5-0.5,0.5-1.3,0-1.8l-3.6-3.6c-0.5-0.5-1.3-0.5-1.8,0l-0.5,0.5c-0.4,0.4-1.1,0.5-1.6,0.2c-1-0.5-2-1-3.1-1.3
		c-0.6-0.2-1-0.7-1-1.3v-0.8c0-0.7-0.6-1.3-1.3-1.3h-5.2c-0.7,0-1.3,0.6-1.3,1.3v0.8c0,0.6-0.4,1.1-1,1.3c-1.1,0.3-2.1,0.8-3.1,1.3
		c-0.5,0.3-1.2,0.2-1.6-0.3l-0.5-0.5c-0.5-0.5-1.3-0.5-1.8,0L96.1,77c-0.5,0.5-0.5,1.3,0,1.8l0.5,0.5c0.4,0.4,0.5,1.1,0.2,1.6
		c-0.5,1-1,2-1.3,3.1c-0.2,0.6-0.7,1-1.3,1h-0.8c-0.7,0-1.3,0.6-1.3,1.3v5.2c0,0.7,0.6,1.3,1.3,1.3h0.8c0.6,0,1.1,0.4,1.3,1
		c0.3,1.1,0.8,2.1,1.3,3.1c0.3,0.5,0.2,1.2-0.2,1.6L96.1,99c-0.5,0.5-0.5,1.3,0,1.8l3.6,3.6c0.5,0.5,1.3,0.5,1.8,0l0.5-0.5
		c0.4-0.4,1.1-0.5,1.6-0.2c1,0.5,2,1,3.1,1.3c0.6,0.2,1,0.7,1,1.3v0.8c0,0.7,0.6,1.3,1.3,1.3h5.2c0.7,0,1.3-0.6,1.3-1.3v-0.8
		c0-0.6,0.4-1.1,1-1.3c1.1-0.3,2.1-0.8,3.1-1.3c0.5-0.3,1.2-0.2,1.6,0.2l0.5,0.5c0.5,0.5,1.3,0.5,1.8,0l3.6-3.6
		c0.5-0.5,0.5-1.3,0-1.8l-0.5-0.5c-0.4-0.4-0.5-1.1-0.2-1.6c0.5-1,1-2,1.3-3.1c0.2-0.6,0.7-1,1.3-1h0.8c0.7,0,1.3-0.6,1.3-1.3v-5.2
		C131.1,85.6,130.5,85,129.8,85z M111.7,100.6c-6.4,0-11.7-5.2-11.7-11.7c0-6.4,5.2-11.7,11.7-11.7c6.4,0,11.7,5.2,11.7,11.7
		C123.3,95.3,118.1,100.6,111.7,100.6z"/>
</g>
</svg>
