<?xml version="1.0" encoding="utf-8"?>
<!-- Generator: Adobe Illustrator 26.0.0, SVG Export Plug-In . SVG Version: 6.00 Build 0)  -->
<svg version="1.1" id="Layer_1" xmlns="http://www.w3.org/2000/svg" xmlns:xlink="http://www.w3.org/1999/xlink" x="0px" y="0px"
	 viewBox="0 0 200 144" style="enable-background:new 0 0 200 144;" xml:space="preserve">
<style type="text/css">
	.st0{fill:none;}
	.st1{fill:#F8FAFD;}
	.st2{fill:#71869D;}
</style>
<rect y="0" class="st0" width="200" height="144"/>
<path class="st1" d="M196,0H4C1.8,0,0,1.8,0,4v136c0,2.2,1.8,4,4,4h192c2.2,0,4-1.8,4-4V4C200,1.8,198.2,0,196,0z"/>
<g>
	<path d="M302.2,420.7c-0.2,0-0.9,0.1-1.4,0.3v-0.6l-0.5,0.3c-0.3,0.2-0.6,0.2-0.7,0.2c-0.7,0-1.7-0.6-1.7-1.8
		c0-1.2,1.1-2.1,2.3-2.1c0.1,0,0.4,0,0.6,0.1V416c0-0.6-0.1-0.6-0.7-0.6v-0.2c0.5-0.1,1.1-0.2,1.4-0.3v5.1c0,0.5,0.1,0.5,0.4,0.5
		h0.2v0.2H302.2z M300.8,417.9c-0.2-0.3-0.6-0.4-0.9-0.4c-0.4,0-1.1,0.3-1.1,1.6c0,1,0.7,1.5,1.2,1.5c0.3,0,0.6-0.1,0.8-0.3V417.9z"
		/>
	<path d="M304.6,417.1c1.1,0,1.9,0.9,1.9,1.9c0,1.4-1.1,2-1.9,2c-1.2,0-2-0.9-2-1.9C302.6,417.8,303.8,417.1,304.6,417.1
		L304.6,417.1z M304.5,417.4c-0.5,0-1,0.5-1,1.5c0,1.1,0.5,1.9,1.2,1.9c0.5,0,1-0.3,1-1.5C305.6,418.2,305.2,417.4,304.5,417.4
		L304.5,417.4z"/>
	<path d="M310.4,420.2c-0.4,0.5-1,0.9-1.5,0.9c-1.1,0-1.8-0.9-1.8-1.8c0-0.7,0.3-1.2,0.9-1.7c0.5-0.4,1-0.5,1.3-0.5l0,0
		c0.4,0,0.6,0.1,0.8,0.2c0.1,0.1,0.1,0.2,0.1,0.3c0,0.2-0.2,0.4-0.3,0.4c-0.1,0-0.1,0-0.2-0.1c-0.3-0.3-0.6-0.4-0.9-0.4
		c-0.5,0-1,0.4-1,1.3c0,1.2,0.9,1.6,1.3,1.6s0.7-0.1,1-0.5L310.4,420.2z"/>
	<path d="M313.1,418.2c-0.2-0.5-0.5-0.9-0.9-0.9c-0.3,0-0.5,0.2-0.5,0.6s0.3,0.6,0.7,0.7c0.7,0.3,1.1,0.6,1.1,1.2
		c0,0.8-0.7,1.2-1.5,1.2c-0.5,0-0.9-0.2-1-0.3c-0.1-0.1-0.1-0.7-0.2-1.1h0.2c0.2,0.6,0.6,1.1,1.1,1.1c0.3,0,0.6-0.2,0.6-0.6
		s-0.2-0.5-0.7-0.7s-1.1-0.5-1.1-1.2c0-0.6,0.5-1.1,1.3-1.1c0.4,0,0.6,0.1,0.8,0.2c0.1,0.2,0.2,0.7,0.2,0.9L313.1,418.2z"/>
	<path d="M316.3,419.3h-2l0.1-0.5h2.1L316.3,419.3z"/>
	<path d="M320.5,420.2c-0.4,0.5-1,0.9-1.5,0.9c-1.1,0-1.8-0.9-1.8-1.8c0-0.7,0.3-1.2,0.9-1.7c0.5-0.4,1-0.5,1.3-0.5l0,0
		c0.4,0,0.6,0.1,0.8,0.2c0.1,0.1,0.1,0.2,0.1,0.3c0,0.2-0.2,0.4-0.3,0.4c-0.1,0-0.1,0-0.2-0.1c-0.3-0.3-0.6-0.4-0.9-0.4
		c-0.5,0-1,0.4-1,1.3c0,1.2,0.9,1.6,1.3,1.6s0.7-0.1,1-0.5L320.5,420.2z"/>
	<path d="M322.9,417.1c1.1,0,1.9,0.9,1.9,1.9c0,1.4-1.1,2-1.9,2c-1.2,0-2-0.9-2-1.9C320.9,417.8,322.1,417.1,322.9,417.1
		L322.9,417.1z M322.8,417.4c-0.5,0-1,0.5-1,1.5c0,1.1,0.5,1.9,1.2,1.9c0.5,0,1-0.3,1-1.5C323.9,418.2,323.5,417.4,322.8,417.4
		L322.8,417.4z"/>
	<path d="M325.3,420.9v-0.2c0.5-0.1,0.6-0.1,0.6-0.7v-4c0-0.6-0.1-0.6-0.6-0.7v-0.2c0.5-0.1,1-0.2,1.3-0.3v5.2
		c0,0.6,0.1,0.6,0.6,0.7v0.2H325.3z"/>
	<path d="M329.7,417.1c1.1,0,1.9,0.9,1.9,1.9c0,1.4-1.1,2-1.9,2c-1.2,0-2-0.9-2-1.9C327.7,417.8,328.8,417.1,329.7,417.1
		L329.7,417.1z M329.6,417.4c-0.5,0-1,0.5-1,1.5c0,1.1,0.5,1.9,1.2,1.9c0.5,0,1-0.3,1-1.5C330.7,418.2,330.3,417.4,329.6,417.4
		L329.6,417.4z"/>
	<path d="M333.6,418c0.3-0.5,0.6-0.9,1-0.9c0.3,0,0.5,0.2,0.5,0.4c0,0.2-0.1,0.4-0.3,0.5c-0.1,0-0.2,0-0.2,0
		c-0.1-0.1-0.2-0.2-0.4-0.2c-0.2,0-0.5,0.3-0.7,0.7v1.5c0,0.6,0,0.6,0.7,0.7v0.2h-2.1v-0.2c0.5-0.1,0.6-0.1,0.6-0.7v-1.8
		c0-0.5,0-0.6-0.5-0.7v-0.2c0.4-0.1,0.8-0.2,1.3-0.4L333.6,418L333.6,418z"/>
	<path d="M337.7,419.3h-2l0.1-0.5h2.1L337.7,419.3z"/>
	<path d="M343.5,420.9v-0.2c0.5-0.1,0.6-0.1,0.6-0.7v-1.4c0-0.6-0.2-1-0.8-1c-0.3,0-0.6,0.2-0.9,0.4c0,0.1,0,0.2,0,0.4v1.6
		c0,0.5,0.1,0.6,0.6,0.6v0.2h-2v-0.2c0.5-0.1,0.6-0.1,0.6-0.7v-1.4c0-0.6-0.2-1-0.7-1c-0.3,0-0.7,0.2-0.9,0.4v2
		c0,0.6,0.1,0.6,0.5,0.7v0.2h-1.9v-0.2c0.6-0.1,0.6-0.1,0.6-0.7v-1.7c0-0.5,0-0.6-0.5-0.7v-0.2c0.4-0.1,0.9-0.2,1.3-0.3v0.7
		c0.2-0.1,0.4-0.3,0.6-0.4s0.4-0.2,0.7-0.2c0.4,0,0.8,0.3,1,0.7c0.3-0.2,0.5-0.3,0.7-0.5c0.2-0.1,0.4-0.2,0.7-0.2
		c0.7,0,1.1,0.5,1.1,1.3v1.6c0,0.6,0.1,0.6,0.6,0.7v0.2L343.5,420.9L343.5,420.9z"/>
	<path d="M347.8,417.1c1.1,0,1.9,0.9,1.9,1.9c0,1.4-1.1,2-1.9,2c-1.2,0-2-0.9-2-1.9C345.9,417.8,347,417.1,347.8,417.1L347.8,417.1z
		 M347.7,417.4c-0.5,0-1,0.5-1,1.5c0,1.1,0.5,1.9,1.2,1.9c0.5,0,1-0.3,1-1.5C348.9,418.2,348.5,417.4,347.7,417.4L347.7,417.4z"/>
	<path d="M354.7,420.7c-0.2,0-0.9,0.1-1.4,0.3v-0.6l-0.5,0.3c-0.3,0.2-0.6,0.2-0.7,0.2c-0.7,0-1.7-0.6-1.7-1.8
		c0-1.2,1.1-2.1,2.3-2.1c0.1,0,0.4,0,0.6,0.1V416c0-0.6-0.1-0.6-0.7-0.6v-0.2c0.5-0.1,1.1-0.2,1.4-0.3v5.1c0,0.5,0.1,0.5,0.4,0.5
		h0.2v0.2H354.7z M353.2,417.9c-0.2-0.3-0.6-0.4-0.9-0.4c-0.4,0-1.1,0.3-1.1,1.6c0,1,0.7,1.5,1.2,1.5c0.3,0,0.6-0.1,0.8-0.3V417.9z"
		/>
	<path d="M358.2,420.2c-0.6,0.7-1.2,0.9-1.5,0.9c-1.1,0-1.7-0.9-1.7-1.8c0-0.6,0.2-1.1,0.6-1.5s0.8-0.7,1.3-0.7l0,0
		c0.7,0,1.3,0.6,1.3,1.3c0,0.2,0,0.2-0.2,0.3c-0.2,0-1.2,0.1-2.3,0.1c0,1.1,0.7,1.6,1.3,1.6c0.4,0,0.7-0.1,1-0.4L358.2,420.2z
		 M356.7,417.4c-0.4,0-0.8,0.3-0.9,1c0.5,0,0.9,0,1.4,0c0.2,0,0.2-0.1,0.2-0.2C357.5,417.8,357.2,417.4,356.7,417.4L356.7,417.4z"/>
	<path d="M358.5,420.9v-6h4.3v6H358.5z M358.9,420.1l1.4-2.2l-1.4-2.2V420.1z M359.2,415.4l1.4,2.2l1.5-2.2H359.2z M362.1,420.5
		l-1.5-2.2l-1.4,2.2H362.1z M362.3,415.8l-1.4,2.2l1.4,2.2V415.8z"/>
</g>
<g>
	<g>
		<path class="st2" d="M120.9,36.6H79.3c-3.2,0-5.8,2.6-5.8,5.8v43.9c0,1.8,0.9,3.6,2.4,4.7l20.8,15.4c1,0.7,2.1,1.1,3.3,1.1
			c1.2,0,2.3-0.4,3.3-1.1l21-15.4c1.5-1.1,2.3-2.8,2.3-4.7V42.4C126.5,39.2,124,36.7,120.9,36.6z M113.1,71.9l-4.1,4l0.9,5.7
			c0.2,1.3-0.3,2.5-1.3,3.3c-0.5,0.4-1.2,0.6-1.9,0.6c-0.5,0-1-0.1-1.5-0.4l-5.1-2.7l-5.1,2.7c-1.1,0.5-2.3,0.5-3.3-0.2
			c-1.1-0.7-1.6-2-1.3-3.3l1-5.7l-4.2-4c-0.9-0.9-1.2-2.1-0.8-3.3c0.4-1.2,1.4-2,2.6-2.2l5.7-0.9l2.5-5.1c0.6-1.1,1.7-1.8,2.9-1.8
			c1.2,0,2.4,0.7,2.9,1.8l2.6,5.1l5.7,0.9c1.2,0.2,2.2,1.1,2.6,2.2C114.1,69.8,113.9,71.1,113.1,71.9z"/>
	</g>
</g>
</svg>
