<?xml version="1.0" encoding="utf-8"?>
<!-- Generator: Adobe Illustrator 26.0.0, SVG Export Plug-In . SVG Version: 6.00 Build 0)  -->
<svg version="1.1" id="Layer_1" xmlns="http://www.w3.org/2000/svg" xmlns:xlink="http://www.w3.org/1999/xlink" x="0px" y="0px"
	 viewBox="0 0 200 144" style="enable-background:new 0 0 200 144;" xml:space="preserve">
<style type="text/css">
	.st0{fill:none;}
	.st1{fill:#F8FAFD;}
	.st2{fill:#9CAABA;fill-opacity:0.5;}
	.st3{fill:#FFFFFF;}
	.st4{fill:#BDC5D1;}
	.st5{fill:#71869D;}
</style>
<rect y="0" class="st0" width="200" height="144"/>
<path class="st1" d="M196,0H4C1.8,0,0,1.8,0,4v136c0,2.2,1.8,4,4,4h192c2.2,0,4-1.8,4-4V4C200,1.8,198.2,0,196,0z"/>
<path class="st2" d="M196,0H4C1.8,0,0,1.8,0,4v136c0,2.2,1.8,4,4,4h192c2.2,0,4-1.8,4-4V4C200,1.8,198.2,0,196,0z"/>
<g>
	<path class="st3" d="M101.6,57.9H140c0.7,0,1.3,0.6,1.3,1.3v25.6c0,0.7-0.6,1.3-1.3,1.3h-38.3c-0.7,0-1.3-0.6-1.3-1.3V59.2
		C100.3,58.5,100.9,57.9,101.6,57.9z"/>
	<path class="st4" d="M128.8,76.6l-4.2-5.1c-0.1-0.1-0.3-0.2-0.4-0.2h-0.2c-0.2,0-0.3,0.1-0.4,0.2l-1.3,1.7l-2.8-3.8
		c-0.1-0.1-0.3-0.2-0.5-0.2h-0.2c-0.2,0-0.3,0.1-0.4,0.2l-5.4,7.3c-0.1,0.2-0.1,0.4,0,0.6l0.2,0.3c0.1,0.2,0.3,0.3,0.5,0.3h14.7
		c0.2,0,0.4-0.1,0.5-0.3l0.2-0.3C128.9,77.1,128.9,76.8,128.8,76.6z M114.9,76.3l3.9-5.2l1.7,5.2H114.9z M125.2,69.2
		c0.8,0,1.5-0.7,1.5-1.4s-0.7-1.4-1.5-1.4c-0.8,0-1.5,0.7-1.5,1.4C123.8,68.5,124.4,69.2,125.2,69.2z"/>
	<path class="st3" d="M55.3,25.1H140c0.7,0,1.3,0.6,1.3,1.3V52c0,0.7-0.6,1.3-1.3,1.3H55.3c-0.7,0-1.3-0.6-1.3-1.3V26.4
		C54,25.7,54.6,25.1,55.3,25.1z"/>
	<path class="st4" d="M105.6,43.8l-4.2-5.1c-0.1-0.1-0.3-0.2-0.4-0.2h-0.2c-0.2,0-0.3,0.1-0.4,0.2L99,40.3l-2.8-3.8
		c-0.1-0.1-0.3-0.2-0.5-0.2h-0.2c-0.2,0-0.3,0.1-0.4,0.2l-5.4,7.3c-0.1,0.2-0.1,0.4,0,0.6l0.2,0.3c0.1,0.2,0.3,0.3,0.5,0.3H105
		c0.2,0,0.4-0.1,0.5-0.3l0.2-0.3C105.7,44.2,105.7,44,105.6,43.8z M91.7,43.5l3.9-5.2l1.7,5.2H91.7z M102,36.3
		c0.8,0,1.5-0.7,1.5-1.4s-0.7-1.4-1.5-1.4c-0.8,0-1.5,0.7-1.5,1.4C100.6,35.7,101.2,36.3,102,36.3z"/>
	<path class="st3" d="M55.3,57.9h38.3c0.7,0,1.3,0.6,1.3,1.3v25.6c0,0.7-0.6,1.3-1.3,1.3H55.3c-0.7,0-1.3-0.6-1.3-1.3V59.2
		C54,58.5,54.6,57.9,55.3,57.9z"/>
	<path class="st4" d="M82.5,76.6l-4.2-5.1c-0.1-0.1-0.3-0.2-0.4-0.2h-0.2c-0.2,0-0.3,0.1-0.4,0.2l-1.3,1.7L73,69.3
		c-0.1-0.1-0.3-0.2-0.5-0.2h-0.2c-0.2,0-0.3,0.1-0.4,0.2l-5.4,7.3c-0.1,0.2-0.1,0.4,0,0.6l0.2,0.3c0.1,0.2,0.3,0.3,0.5,0.3h14.7
		c0.2,0,0.4-0.1,0.5-0.3l0.2-0.3C82.6,77.1,82.6,76.8,82.5,76.6z M68.5,76.3l3.9-5.2l1.7,5.2H68.5z M78.9,69.2
		c0.8,0,1.5-0.7,1.5-1.4s-0.7-1.4-1.5-1.4c-0.8,0-1.5,0.7-1.5,1.4S78.1,69.2,78.9,69.2z"/>
	<path class="st3" d="M101.6,90.7H140c0.7,0,1.3,0.6,1.3,1.3v25.6c0,0.7-0.6,1.3-1.3,1.3h-38.3c-0.7,0-1.3-0.6-1.3-1.3V92.1
		C100.3,91.3,100.9,90.7,101.6,90.7z"/>
	<path class="st4" d="M128.8,109.5l-4.2-5.1c-0.1-0.1-0.3-0.2-0.4-0.2h-0.2c-0.2,0-0.3,0.1-0.4,0.2l-1.3,1.7l-2.8-3.8
		c-0.1-0.1-0.3-0.2-0.5-0.2h-0.2c-0.2,0-0.3,0.1-0.4,0.2l-5.4,7.3c-0.1,0.2-0.1,0.4,0,0.6l0.2,0.3c0.1,0.2,0.3,0.3,0.5,0.3h14.7
		c0.2,0,0.4-0.1,0.5-0.3l0.2-0.3C128.9,109.9,128.9,109.6,128.8,109.5z M114.9,109.1l3.9-5.2l1.7,5.2H114.9z M125.2,102
		c0.8,0,1.5-0.7,1.5-1.4s-0.7-1.4-1.5-1.4c-0.8,0-1.5,0.7-1.5,1.4C123.8,101.4,124.4,102,125.2,102z"/>
	<path class="st3" d="M55.3,90.7h38.3c0.7,0,1.3,0.6,1.3,1.3v25.6c0,0.7-0.6,1.3-1.3,1.3H55.3c-0.7,0-1.3-0.6-1.3-1.3V92.1
		C54,91.3,54.6,90.7,55.3,90.7z"/>
	<path class="st4" d="M82.5,109.5l-4.2-5.1c-0.1-0.1-0.3-0.2-0.4-0.2h-0.2c-0.2,0-0.3,0.1-0.4,0.2l-1.3,1.7l-2.8-3.8
		c-0.1-0.1-0.3-0.2-0.5-0.2h-0.2c-0.2,0-0.3,0.1-0.4,0.2l-5.4,7.3c-0.1,0.2-0.1,0.4,0,0.6l0.2,0.3c0.1,0.2,0.3,0.3,0.5,0.3h14.7
		c0.2,0,0.4-0.1,0.5-0.3l0.2-0.3C82.6,109.9,82.6,109.6,82.5,109.5z M68.5,109.1l3.9-5.2l1.7,5.2H68.5z M78.9,102
		c0.8,0,1.5-0.7,1.5-1.4s-0.7-1.4-1.5-1.4c-0.8,0-1.5,0.7-1.5,1.4C77.4,101.4,78.1,102,78.9,102z"/>
	<g>
		<path class="st4" d="M166.5,104.2H166c-0.4,0-0.7-0.2-0.8-0.6c-0.2-0.7-0.5-1.3-0.8-2c-0.2-0.3-0.1-0.7,0.1-1l0.4-0.3
			c0.3-0.3,0.3-0.8,0-1.2l-2.3-2.3c-0.3-0.3-0.8-0.3-1.2,0l-0.3,0.3c-0.3,0.3-0.7,0.3-1,0.1c-0.6-0.3-1.3-0.6-2-0.8
			c-0.4-0.1-0.6-0.4-0.6-0.8v-0.5c0-0.5-0.4-0.8-0.8-0.8h-3.3c-0.5,0-0.8,0.4-0.8,0.8v0.5c0,0.4-0.2,0.7-0.6,0.8
			c-0.7,0.2-1.3,0.5-2,0.8c-0.3,0.2-0.7,0.1-1-0.2l-0.3-0.3c-0.3-0.3-0.8-0.3-1.2,0l-2.3,2.3c-0.3,0.3-0.3,0.8,0,1.2l0.3,0.3
			c0.3,0.3,0.3,0.7,0.1,1c-0.3,0.6-0.6,1.3-0.8,2c-0.1,0.4-0.4,0.6-0.8,0.6h-0.5c-0.5,0-0.8,0.4-0.8,0.8v3.3c0,0.5,0.4,0.8,0.8,0.8
			h0.5c0.4,0,0.7,0.2,0.8,0.6c0.2,0.7,0.5,1.3,0.8,2c0.2,0.3,0.1,0.7-0.1,1l-0.4,0.3c-0.3,0.3-0.3,0.8,0,1.2l2.3,2.3
			c0.3,0.3,0.8,0.3,1.2,0l0.3-0.3c0.3-0.3,0.7-0.3,1-0.1c0.6,0.3,1.3,0.6,2,0.8c0.4,0.1,0.6,0.4,0.6,0.8v0.5c0,0.5,0.4,0.8,0.8,0.8
			h3.3c0.5,0,0.8-0.4,0.8-0.8v-0.5c0-0.4,0.2-0.7,0.6-0.8c0.7-0.2,1.3-0.5,2-0.8c0.3-0.2,0.7-0.1,1,0.1l0.3,0.3
			c0.3,0.3,0.8,0.3,1.2,0l2.3-2.3c0.3-0.3,0.3-0.8,0-1.2l-0.3-0.3c-0.3-0.3-0.3-0.7-0.1-1c0.3-0.6,0.6-1.3,0.8-2
			c0.1-0.4,0.4-0.6,0.8-0.6h0.5c0.5,0,0.8-0.4,0.8-0.8V105C167.3,104.5,167,104.2,166.5,104.2z M155.1,114c-4.1,0-7.3-3.3-7.3-7.3
			s3.3-7.3,7.3-7.3c4.1,0,7.3,3.3,7.3,7.3S159.2,114,155.1,114z"/>
	</g>
	<g>
		<g>
			<path class="st5" d="M157.2,101.3h-0.6c-0.5,0-0.9-0.3-1-0.7c-0.2-0.8-0.6-1.6-1-2.4c-0.2-0.4-0.2-0.9,0.2-1.2l0.4-0.4
				c0.4-0.4,0.4-1,0-1.4l-2.7-2.7c-0.4-0.4-1-0.4-1.4,0l-0.4,0.4c-0.3,0.3-0.8,0.4-1.2,0.2c-0.7-0.4-1.5-0.7-2.4-1
				c-0.4-0.1-0.7-0.5-0.7-1v-0.6c0-0.5-0.4-1-1-1h-3.9c-0.5,0-1,0.4-1,1v0.6c0,0.5-0.3,0.9-0.7,1c-0.8,0.2-1.6,0.6-2.4,1
				c-0.4,0.2-0.9,0.1-1.2-0.2l-0.4-0.4c-0.4-0.4-1-0.4-1.4,0l-2.7,2.7c-0.4,0.4-0.4,1,0,1.4l0.4,0.4c0.3,0.3,0.4,0.8,0.2,1.2
				c-0.4,0.7-0.7,1.5-1,2.4c-0.1,0.4-0.5,0.7-1,0.7h-0.6c-0.5,0-1,0.4-1,1v3.9c0,0.5,0.4,1,1,1h0.6c0.5,0,0.9,0.3,1,0.7
				c0.2,0.8,0.6,1.6,1,2.4c0.2,0.4,0.2,0.9-0.2,1.2l-0.4,0.4c-0.4,0.4-0.4,1,0,1.4l2.7,2.7c0.4,0.4,1,0.4,1.4,0l0.4-0.4
				c0.3-0.3,0.8-0.4,1.2-0.2c0.7,0.4,1.5,0.7,2.4,1c0.4,0.1,0.7,0.5,0.7,1v0.6c0,0.5,0.4,1,1,1h3.9c0.5,0,1-0.4,1-1v-0.6
				c0-0.5,0.3-0.9,0.7-1c0.8-0.2,1.6-0.6,2.4-1c0.4-0.2,0.9-0.2,1.2,0.2l0.4,0.4c0.4,0.4,1,0.4,1.4,0l2.7-2.7c0.4-0.4,0.4-1,0-1.4
				l-0.4-0.4c-0.3-0.3-0.4-0.8-0.2-1.2c0.4-0.7,0.7-1.5,1-2.4c0.1-0.4,0.5-0.7,1-0.7h0.6c0.5,0,1-0.4,1-1v-3.9
				C158.1,101.7,157.7,101.3,157.2,101.3z M143.5,113c-4.9,0-8.8-3.9-8.8-8.8s3.9-8.8,8.8-8.8c4.9,0,8.8,3.9,8.8,8.8
				S148.3,113,143.5,113z"/>
		</g>
	</g>
</g>
</svg>
