<?xml version="1.0" encoding="utf-8"?>
<!-- Generator: Adobe Illustrator 26.0.0, SVG Export Plug-In . SVG Version: 6.00 Build 0)  -->
<svg version="1.1" id="Layer_1" xmlns="http://www.w3.org/2000/svg" xmlns:xlink="http://www.w3.org/1999/xlink" x="0px" y="0px"
	 viewBox="0 0 200 144" style="enable-background:new 0 0 200 144;" xml:space="preserve">
<style type="text/css">
	.st0{fill:#F8FAFD;}
	.st1{fill:#71869D;}
	.st2{fill:#D9DDEA;}
</style>
<path class="st0" d="M196,0H4C1.8,0,0,1.8,0,4v136c0,2.2,1.8,4,4,4h192c2.2,0,4-1.8,4-4V4C200,1.8,198.2,0,196,0z"/>
<g>
	<g>
		<g>
			<path class="st1" d="M119.6,56.7H80.4c-3.9,0-7.1,3.1-7.1,7.1v33.8c0,3.9,3.1,7.1,7.1,7.1h39.3c3.9,0,7.1-3.1,7.1-7.1V63.8
				C126.7,59.8,123.6,56.7,119.6,56.7z M111.2,75.8c0,1.3-1,2.4-2.4,2.4H91.1c-1.3,0-2.4-1-2.4-2.4v-6c0-1.3,1-2.4,2.4-2.4
				s2.4,1,2.4,2.4v3.6h13v-3.6c0-1.3,1-2.4,2.4-2.4c1.3,0,2.4,1,2.4,2.4L111.2,75.8L111.2,75.8z"/>
		</g>
	</g>
	<g>
		<g>
			<path class="st2" d="M119.6,48H80.4c-1.3,0-2.4,1-2.4,2.4s1,2.4,2.4,2.4h39.3c1.3,0,2.4-1,2.4-2.4C122,49.1,121,48,119.6,48z"/>
		</g>
	</g>
	<g>
		<g>
			<path class="st2" d="M115.7,39.4H84.3c-1.3,0-2.4,1-2.4,2.4s1,2.4,2.4,2.4h31.4c1.3,0,2.4-1,2.4-2.4S117,39.4,115.7,39.4z"/>
		</g>
	</g>
</g>
</svg>
