<?xml version="1.0" encoding="utf-8"?>
<!-- Generator: Adobe Illustrator 26.0.0, SVG Export Plug-In . SVG Version: 6.00 Build 0)  -->
<svg version="1.1" id="Layer_1" xmlns="http://www.w3.org/2000/svg" xmlns:xlink="http://www.w3.org/1999/xlink" x="0px" y="0px"
	 viewBox="0 0 200 144" style="enable-background:new 0 0 200 144;" xml:space="preserve">
<style type="text/css">
	.st0{fill:#1E2022;}
	.st1{fill:#BDC5D1;}
	.st2{fill:#3D4145;}
</style>
<path class="st0" d="M196,0H4C1.8,0,0,1.8,0,4v136c0,2.2,1.8,4,4,4h192c2.2,0,4-1.8,4-4V4C200,1.8,198.2,0,196,0z"/>
<g>
	<path class="st1" d="M101.1,103.2c-6.6,0-12.9-2.2-18.1-6.2c-0.9,5.5-9.2,5.1-9.4-0.5c-0.1-3.4-0.1-6.8,0-10.6c0-2.6,2-4.6,4.7-4.6
		c1.6,0,3.3,0,5.1,0c1.6,0,3.3,0,5.1,0c5.3-0.1,6.7,7.2,1.9,9.1c13,8.5,31.1-1.1,31.3-16.7c-0.1-2.9,1.8-5.4,4.7-5.3
		c1.3,0,2.5,0.5,3.4,1.4c0.8,0.9,1.3,2,1.2,3.2C131.7,89.4,117.6,103.4,101.1,103.2L101.1,103.2z"/>
	<path class="st2" d="M73.5,75.1c-2.7,0.1-5-2.4-4.7-5.1c0.3-2.8,0.6-5.7,1.5-8.5c5.8-19.5,30.9-27.2,46.7-14.6
		c1.1-5.7,9.2-5.1,9.4,0.8c0.1,2,0,3.9,0,5.9c0.1,4.4,0.5,8.9-5.2,9c-3.1,0-5.9,0-9.2,0c-5.6,0.2-7.2-7.1-2.3-9.1
		c-6.1-3.9-12.6-4.4-19.1-1.6c-7,3-11.2,8.6-12.3,16.5c-0.1,0.6-0.1,1.3-0.2,2C78,73.3,76.1,75.1,73.5,75.1L73.5,75.1z"/>
</g>
</svg>
