<?xml version="1.0" encoding="utf-8"?>
<!-- Generator: Adobe Illustrator 26.0.0, SVG Export Plug-In . SVG Version: 6.00 Build 0)  -->
<svg version="1.1" id="Layer_1" xmlns="http://www.w3.org/2000/svg" xmlns:xlink="http://www.w3.org/1999/xlink" x="0px" y="0px"
	 viewBox="0 0 200 144" style="enable-background:new 0 0 200 144;" xml:space="preserve">
<style type="text/css">
	.st0{fill:#1E2022;}
	.st1{fill:#3D4145;fill-opacity:0.5;}
	.st2{fill:#71869D;fill-opacity:0.7;}
	.st3{fill:#D9DDEA;}
</style>
<path class="st0" d="M196,0H4C1.8,0,0,1.8,0,4v136c0,2.2,1.8,4,4,4h192c2.2,0,4-1.8,4-4V4C200,1.8,198.2,0,196,0z"/>
<path class="st1" d="M196,0H4C1.8,0,0,1.8,0,4v136c0,2.2,1.8,4,4,4h192c2.2,0,4-1.8,4-4V4C200,1.8,198.2,0,196,0z"/>
<path class="st0" d="M24,20h152c2.2,0,4,1.8,4,4v96c0,2.2-1.8,4-4,4H24c-2.2,0-4-1.8-4-4V24C20,21.8,21.8,20,24,20z"/>
<path class="st2" d="M101,30h61c2.8,0,5,2.2,5,5l0,0c0,2.8-2.2,5-5,5h-61c-2.8,0-5-2.2-5-5l0,0C96,32.2,98.2,30,101,30z"/>
<path class="st3" d="M36,49.9h128c1.7,0,3,1.3,3,3l0,0c0,1.7-1.3,3-3,3H36c-1.7,0-3-1.3-3-3l0,0C33,51.2,34.3,49.9,36,49.9z"/>
<path class="st3" d="M35.7,61.9H150c1.5,0,2.7,1.3,2.7,3l0,0c0,1.7-1.2,3-2.7,3H35.7c-1.5,0-2.7-1.3-2.7-3l0,0
	C33,63.2,34.2,61.9,35.7,61.9z"/>
<path class="st3" d="M35.7,73.9H150c1.5,0,2.7,1.3,2.7,3l0,0c0,1.7-1.2,3-2.7,3H35.7c-1.5,0-2.7-1.3-2.7-3l0,0
	C33,75.2,34.2,73.9,35.7,73.9z"/>
<path class="st3" d="M36,89.9h128c1.7,0,3,1.3,3,3l0,0c0,1.7-1.3,3-3,3H36c-1.7,0-3-1.3-3-3l0,0C33,91.2,34.3,89.9,36,89.9z"/>
<path class="st3" d="M35.7,101.9H150c1.5,0,2.7,1.3,2.7,3l0,0c0,1.7-1.2,3-2.7,3H35.7c-1.5,0-2.7-1.3-2.7-3l0,0
	C33,103.2,34.2,101.9,35.7,101.9z"/>
<circle class="st3" cx="37.2" cy="34.1" r="4.2"/>
</svg>
