<?xml version="1.0" encoding="utf-8"?>
<!-- Generator: Adobe Illustrator 26.0.0, SVG Export Plug-In . SVG Version: 6.00 Build 0)  -->
<svg version="1.1" id="Layer_1" xmlns="http://www.w3.org/2000/svg" xmlns:xlink="http://www.w3.org/1999/xlink" x="0px" y="0px"
	 viewBox="0 0 200 144" style="enable-background:new 0 0 200 144;" xml:space="preserve">
<style type="text/css">
	.st0{fill:#1E2022;}
	.st1{fill:#A7B4C3;}
	.st2{fill:#3D4145;}
</style>
<path class="st0" d="M196,0H4C1.8,0,0,1.8,0,4v136c0,2.2,1.8,4,4,4h192c2.2,0,4-1.8,4-4V4C200,1.8,198.2,0,196,0z"/>
<path class="st1" d="M92.3,53.4c-0.4-1-1.4-1.7-2.5-1.7s-2.1,0.7-2.5,1.7l-7.2,18.2c-0.6,1.4,0.1,3,1.5,3.5c1.4,0.6,3-0.1,3.5-1.5
	l0.4-1h8.6l0.4,1c0.4,1.1,1.5,1.7,2.5,1.7c0.3,0,0.7-0.1,1-0.2c1.4-0.6,2.1-2.1,1.5-3.5L92.3,53.4z M87.7,67.2l2.1-5.4l2.1,5.4H87.7
	z"/>
<path class="st1" d="M111.7,66.2h-2.4c-2.3,0-4.2,1.9-4.2,4.2v15.3c0,2.3,1.9,4.2,4.2,4.2h2.4c4.7,0,8.5-3.8,8.5-8.5v-6.7
	C120.1,70,116.3,66.2,111.7,66.2z M114.7,81.4c0,1.7-1.3,3-3,3h-1.1V71.7h1.1c1.7,0,3,1.3,3,3V81.4z"/>
<path class="st2" d="M125.1,46.9c-6.7-6.7-15.6-10.4-25.1-10.4s-18.4,3.7-25.1,10.4C68.3,53.6,64.6,62.5,64.6,72s3.7,18.4,10.4,25.1
	c6.7,6.7,15.6,10.4,25.1,10.4s18.4-3.7,25.1-10.4c6.7-6.7,10.4-15.6,10.4-25.1S131.7,53.6,125.1,46.9L125.1,46.9z M80.7,52.7
	c5.1-5.1,12-8,19.3-8c5.9,0,11.5,1.9,16.1,5.3L78.1,88.1c-3.4-4.7-5.3-10.3-5.3-16.1C72.8,64.7,75.6,57.9,80.7,52.7L80.7,52.7z
	 M119.3,91.3c-5.1,5.1-12,8-19.3,8c-5.9,0-11.5-1.9-16.1-5.3l38.1-38.1c3.4,4.7,5.3,10.3,5.3,16.1C127.2,79.3,124.4,86.1,119.3,91.3
	L119.3,91.3z"/>
</svg>
