<?xml version="1.0" encoding="utf-8"?>
<!-- Generator: Adobe Illustrator 26.0.0, SVG Export Plug-In . SVG Version: 6.00 Build 0)  -->
<svg version="1.1" id="Layer_1" xmlns="http://www.w3.org/2000/svg" xmlns:xlink="http://www.w3.org/1999/xlink" x="0px" y="0px"
	 viewBox="0 0 200 144" style="enable-background:new 0 0 200 144;" xml:space="preserve">
<style type="text/css">
	.st0{fill:#1E2022;}
	.st1{fill:#3D4145;}
	.st2{fill:#BDC5D1;}
	.st3{fill:#71869D;}
	.st4{fill:#A7B4C3;}
</style>
<path class="st0" d="M196,0H4C1.8,0,0,1.8,0,4v136c0,2.2,1.8,4,4,4h192c2.2,0,4-1.8,4-4V4C200,1.8,198.2,0,196,0z"/>
<path class="st1" d="M43,30h114c2.2,0,4,1.8,4,4v76c0,2.2-1.8,4-4,4H43c-2.2,0-4-1.8-4-4V34C39,31.8,40.8,30,43,30z"/>
<path class="st2" d="M123.7,85.7l-12.5-15.2c-0.3-0.4-0.8-0.7-1.3-0.7h-0.7c-0.5,0-1,0.2-1.3,0.7l-4,4.9l-8.3-11.3
	c-0.3-0.4-0.8-0.7-1.4-0.7h-0.7c-0.5,0-1,0.2-1.3,0.7l-16,21.6c-0.4,0.5-0.4,1.2,0,1.7l0.5,0.8c0.3,0.5,0.8,0.8,1.4,0.8h43.7
	c0.6,0,1.1-0.3,1.4-0.8l0.5-0.8C124.1,86.9,124.1,86.2,123.7,85.7z M82.4,84.8l11.5-15.6l5,15.6H82.4z M113.1,63.5
	c2.4,0,4.4-1.9,4.4-4.2c0-2.3-2-4.2-4.4-4.2c-2.4,0-4.4,1.9-4.4,4.2C108.7,61.6,110.7,63.5,113.1,63.5z"/>
<path class="st3" d="M16.6,67.5c0.3-0.3,0.3-0.9,0-1.2c-0.3-0.3-0.9-0.3-1.2,0l-5.1,5.1c-0.3,0.3-0.3,0.8,0,1.2l4.7,5.1
	c0.3,0.3,0.9,0.4,1.2,0.1c0.3-0.3,0.4-0.9,0.1-1.2L12,72L16.6,67.5z"/>
<path class="st3" d="M183.3,67.5c-0.3-0.3-0.3-0.9,0-1.2c0.3-0.3,0.9-0.3,1.2,0l5.1,5.1c0.3,0.3,0.3,0.8,0,1.2l-4.7,5.1
	c-0.3,0.3-0.9,0.4-1.2,0.1c-0.3-0.3-0.4-0.9-0.1-1.2l4.2-4.5L183.3,67.5z"/>
<path class="st3" d="M105.4,121.4L105.4,121.4c2.2,0,4,1.8,4,4l0,0c0,2.2-1.8,4-4,4l0,0c-2.2,0-4-1.8-4-4l0,0
	C101.4,123.1,103.2,121.4,105.4,121.4z"/>
<path class="st4" d="M92.4,121.4L92.4,121.4c2.2,0,4,1.8,4,4l0,0c0,2.2-1.8,4-4,4l0,0c-2.2,0-4-1.8-4-4l0,0
	C88.4,123.1,90.2,121.4,92.4,121.4z"/>
</svg>
