<?xml version="1.0" encoding="utf-8"?>
<!-- Generator: Adobe Illustrator 26.0.0, SVG Export Plug-In . SVG Version: 6.00 Build 0)  -->
<svg version="1.1" id="Layer_1" xmlns="http://www.w3.org/2000/svg" xmlns:xlink="http://www.w3.org/1999/xlink" x="0px" y="0px"
	 viewBox="0 0 200 144" style="enable-background:new 0 0 200 144;" xml:space="preserve">
<style type="text/css">
	.st0{fill:#1E2022;}
	.st1{fill:#D9DDEA;}
	.st2{fill:#71869D;}
</style>
<path class="st0" d="M196,0H4C1.8,0,0,1.8,0,4v136c0,2.2,1.8,4,4,4h192c2.2,0,4-1.8,4-4V4C200,1.8,198.2,0,196,0z"/>
<path class="st1" d="M164,76H36c-2.2,0-4-1.8-4-4l0,0c0-2.2,1.8-4,4-4h128c2.2,0,4,1.8,4,4l0,0C168,74.2,166.2,76,164,76z"/>
<path class="st2" d="M168,72c0,2.2-1.8,4-4,4h-62v-8h62C166.2,68,168,69.8,168,72z"/>
</svg>
