<?xml version="1.0" encoding="utf-8"?>
<!-- Generator: Adobe Illustrator 26.0.0, SVG Export Plug-In . SVG Version: 6.00 Build 0)  -->
<svg version="1.1" id="Layer_1" xmlns="http://www.w3.org/2000/svg" xmlns:xlink="http://www.w3.org/1999/xlink" x="0px" y="0px"
	 viewBox="0 0 200 144" style="enable-background:new 0 0 200 144;" xml:space="preserve">
<style type="text/css">
	.st0{fill:#1E2022;}
	.st1{fill:#BDC5D1;}
</style>
<path class="st0" d="M196,0H4C1.8,0,0,1.8,0,4v136c0,2.2,1.8,4,4,4h192c2.2,0,4-1.8,4-4V4C200,1.8,198.2,0,196,0z"/>
<g>
	<g>
		<g>
			<path class="st1" d="M93.2,58.1c-0.8-0.8-2.1-0.8-2.9,0l-4.2,4.2c-0.8,0.8-0.8,2.1,0,2.9l4.2,4.2c0.4,0.4,0.9,0.6,1.5,0.6
				c0.5,0,1.1-0.2,1.5-0.6c0.8-0.8,0.8-2.1,0-2.9l-2.7-2.7l2.7-2.7C94,60.2,94,58.9,93.2,58.1z M101.5,57.5
				c-1.1-0.3-2.2,0.4-2.5,1.5l-2.1,8.3c-0.3,1.1,0.4,2.2,1.5,2.5c0.2,0,0.3,0.1,0.5,0.1c0.9,0,1.8-0.6,2-1.6l2.1-8.3
				C103.3,58.9,102.7,57.8,101.5,57.5z M109.8,58.1c-0.8-0.8-2.1-0.8-2.9,0c-0.8,0.8-0.8,2.1,0,2.9l2.7,2.7l-2.7,2.7
				c-0.8,0.8-0.8,2.1,0,2.9c0.4,0.4,0.9,0.6,1.5,0.6s1.1-0.2,1.5-0.6l4.2-4.2c0.8-0.8,0.8-2.1,0-2.9L109.8,58.1z M135,92.3l-13.8-18
				c-0.1-0.1-0.2-0.2-0.3-0.3l0.3-1.6l5.4-7.5c0.5-0.7,0.5-1.7,0-2.4l-5.4-7.5l-1.5-9.2c-0.1-0.9-0.8-1.6-1.7-1.7l-9.2-1.5l-7.5-5.6
				c-0.7-0.5-1.7-0.5-2.5,0l-7.5,5.6L82.1,44c-0.9,0.1-1.6,0.8-1.7,1.7l-1.5,9.2l-5.4,7.5c-0.5,0.7-0.5,1.7,0,2.4l5.4,7.5l0.3,1.6
				c-0.1,0.1-0.2,0.2-0.3,0.3L65,92.3c-0.5,0.6-0.6,1.4-0.3,2.1c0.3,0.7,0.9,1.2,1.6,1.3l8.8,1.2l1.2,8.8c0.1,0.8,0.7,1.5,1.5,1.7
				c0.2,0.1,0.4,0.1,0.6,0.1c0.6,0,1.2-0.3,1.6-0.8l15.1-19l3.6,2.6c0.4,0.3,0.8,0.4,1.2,0.4s0.9-0.1,1.2-0.4l3.6-2.6l15.1,19
				c0.4,0.5,1,0.8,1.6,0.8c0.2,0,0.4,0,0.6-0.1c0.8-0.2,1.4-0.9,1.5-1.7l1.2-8.8l8.8-1.2c0.7-0.1,1.4-0.6,1.6-1.3
				C135.6,93.7,135.5,92.9,135,92.3z M79.8,100.2l-0.7-5.5c-0.1-0.9-0.9-1.7-1.8-1.8L70.5,92L80,79.6l0.3,2c0.1,0.9,0.8,1.6,1.7,1.7
				l9.2,1.5l0.5,0.4L79.8,100.2z M106.7,81.2L100,86l-6.7-4.9c-0.3-0.2-0.6-0.3-0.9-0.4l-8.2-1.3l-1.3-8.2c-0.1-0.3-0.2-0.6-0.4-0.9
				l-4.9-6.7l4.9-6.7c0.2-0.3,0.3-0.6,0.4-0.9l1.3-8.2l8.2-1.3c0.3-0.1,0.6-0.2,0.9-0.4l6.7-5l6.7,5c0.3,0.2,0.6,0.3,0.9,0.4
				l8.2,1.3l1.3,8.2c0.1,0.3,0.2,0.6,0.4,0.9l4.9,6.7l-4.9,6.7c-0.2,0.3-0.3,0.6-0.4,0.9l-1.3,8.2l-8.2,1.3
				C107.3,80.9,107,81,106.7,81.2z M122.7,92.9c-0.9,0.1-1.7,0.9-1.8,1.8l-0.7,5.5l-12-15l0.5-0.4l9.2-1.5c0.9-0.1,1.6-0.8,1.7-1.7
				l0.3-2l9.5,12.4L122.7,92.9z"/>
		</g>
	</g>
</g>
</svg>
