<?xml version="1.0" encoding="utf-8"?>
<!-- Generator: Adobe Illustrator 26.0.0, SVG Export Plug-In . SVG Version: 6.00 Build 0)  -->
<svg version="1.1" id="Layer_1" xmlns="http://www.w3.org/2000/svg" xmlns:xlink="http://www.w3.org/1999/xlink" x="0px" y="0px"
	 viewBox="0 0 200 144" style="enable-background:new 0 0 200 144;" xml:space="preserve">
<style type="text/css">
	.st0{fill:#1E2022;}
	.st1{fill-rule:evenodd;clip-rule:evenodd;fill:#71869D;}
	.st2{fill-rule:evenodd;clip-rule:evenodd;fill:#D9DDEA;}
</style>
<path class="st0" d="M196,0H4C1.8,0,0,1.8,0,4v136c0,2.2,1.8,4,4,4h192c2.2,0,4-1.8,4-4V4C200,1.8,198.2,0,196,0z"/>
<path class="st1" d="M80.3,83.8h-7.9V60.2h7.9v-7.9H64.6v39.4h15.7V83.8z"/>
<path class="st2" d="M93.9,93l19.3-38.5l-7-3.5L86.8,89.5L93.9,93z"/>
<path class="st1" d="M119.7,91.7h15.7V52.3h-15.7v7.9h7.9v23.6h-7.9V91.7z"/>
</svg>
