<?xml version="1.0" encoding="utf-8"?>
<!-- Generator: Adobe Illustrator 26.0.0, SVG Export Plug-In . SVG Version: 6.00 Build 0)  -->
<svg version="1.1" id="Layer_1" xmlns="http://www.w3.org/2000/svg" xmlns:xlink="http://www.w3.org/1999/xlink" x="0px" y="0px"
	 viewBox="0 0 200 144" style="enable-background:new 0 0 200 144;" xml:space="preserve">
<style type="text/css">
	.st0{fill:#1E2022;}
	.st1{fill:#3D4145;}
	.st2{fill:#BDC5D1;}
</style>
<path class="st0" d="M196,0H4C1.8,0,0,1.8,0,4v136c0,2.2,1.8,4,4,4h192c2.2,0,4-1.8,4-4V4C200,1.8,198.2,0,196,0z"/>
<path class="st1" d="M107.2,16.7h69.4c1.3,0,2.4,1.1,2.4,2.4v46.3c0,1.3-1.1,2.4-2.4,2.4h-69.4c-1.3,0-2.4-1.1-2.4-2.4V19.1
	C104.8,17.8,105.9,16.7,107.2,16.7z"/>
<path class="st2" d="M156.4,50.6l-7.6-9.3c-0.2-0.2-0.5-0.4-0.8-0.4h-0.4c-0.3,0-0.6,0.1-0.8,0.4l-2.4,3l-5.1-6.9
	c-0.2-0.2-0.5-0.4-0.9-0.4H138c-0.3,0-0.6,0.1-0.8,0.4l-9.7,13.2c-0.2,0.3-0.2,0.7,0,1l0.3,0.5c0.2,0.3,0.5,0.5,0.9,0.5h26.6
	c0.4,0,0.7-0.2,0.9-0.5l0.3-0.5C156.6,51.4,156.6,50.9,156.4,50.6z M131.2,50.1l7-9.5l3,9.5H131.2z M149.9,37.1
	c1.5,0,2.7-1.2,2.7-2.6c0-1.4-1.2-2.6-2.7-2.6s-2.7,1.2-2.7,2.6C147.3,35.9,148.5,37.1,149.9,37.1z"/>
<path class="st1" d="M23.3,16.7h69.4c1.3,0,2.4,1.1,2.4,2.4v46.3c0,1.3-1.1,2.4-2.4,2.4H23.3c-1.3,0-2.4-1.1-2.4-2.4V19.1
	C20.9,17.8,22,16.7,23.3,16.7z"/>
<path class="st2" d="M72.5,50.6l-7.6-9.3c-0.2-0.2-0.5-0.4-0.8-0.4h-0.4c-0.3,0-0.6,0.1-0.8,0.4l-2.4,3l-5.1-6.9
	c-0.2-0.2-0.5-0.4-0.9-0.4h-0.4c-0.3,0-0.6,0.1-0.8,0.4l-9.7,13.2c-0.2,0.3-0.2,0.7,0,1l0.3,0.5c0.2,0.3,0.5,0.5,0.9,0.5h26.6
	c0.4,0,0.7-0.2,0.9-0.5l0.3-0.5C72.7,51.4,72.7,50.9,72.5,50.6z M47.3,50.1l7-9.5l3,9.5H47.3z M66,37.1c1.5,0,2.7-1.2,2.7-2.6
	c0-1.4-1.2-2.6-2.7-2.6c-1.5,0-2.7,1.2-2.7,2.6C63.3,35.9,64.6,37.1,66,37.1z"/>
<path class="st1" d="M107.2,76.1h69.4c1.3,0,2.4,1.1,2.4,2.4v46.3c0,1.3-1.1,2.4-2.4,2.4h-69.4c-1.3,0-2.4-1.1-2.4-2.4V78.6
	C104.8,77.2,105.9,76.1,107.2,76.1z"/>
<path class="st2" d="M156.4,110.1l-7.6-9.3c-0.2-0.2-0.5-0.4-0.8-0.4h-0.4c-0.3,0-0.6,0.1-0.8,0.4l-2.4,3l-5.1-6.9
	c-0.2-0.2-0.5-0.4-0.9-0.4H138c-0.3,0-0.6,0.1-0.8,0.4l-9.7,13.2c-0.2,0.3-0.2,0.7,0,1l0.3,0.5c0.2,0.3,0.5,0.5,0.9,0.5h26.6
	c0.4,0,0.7-0.2,0.9-0.5l0.3-0.5C156.6,110.8,156.6,110.4,156.4,110.1z M131.2,109.5l7-9.5l3,9.5H131.2z M149.9,96.5
	c1.5,0,2.7-1.2,2.7-2.6c0-1.4-1.2-2.6-2.7-2.6s-2.7,1.2-2.7,2.6C147.3,95.4,148.5,96.5,149.9,96.5z"/>
<path class="st1" d="M23.3,76.1h69.4c1.3,0,2.4,1.1,2.4,2.4v46.3c0,1.3-1.1,2.4-2.4,2.4H23.3c-1.3,0-2.4-1.1-2.4-2.4V78.6
	C20.9,77.2,22,76.1,23.3,76.1z"/>
<path class="st2" d="M72.5,110.1l-7.6-9.3c-0.2-0.2-0.5-0.4-0.8-0.4h-0.4c-0.3,0-0.6,0.1-0.8,0.4l-2.4,3l-5.1-6.9
	c-0.2-0.2-0.5-0.4-0.9-0.4h-0.4c-0.3,0-0.6,0.1-0.8,0.4l-9.7,13.2c-0.2,0.3-0.2,0.7,0,1l0.3,0.5c0.2,0.3,0.5,0.5,0.9,0.5h26.6
	c0.4,0,0.7-0.2,0.9-0.5l0.3-0.5C72.7,110.8,72.7,110.4,72.5,110.1z M47.3,109.5l7-9.5l3,9.5H47.3z M66,96.5c1.5,0,2.7-1.2,2.7-2.6
	c0-1.4-1.2-2.6-2.7-2.6c-1.5,0-2.7,1.2-2.7,2.6C63.3,95.4,64.6,96.5,66,96.5z"/>
</svg>
