<?xml version="1.0" encoding="utf-8"?>
<!-- Generator: Adobe Illustrator 26.0.0, SVG Export Plug-In . SVG Version: 6.00 Build 0)  -->
<svg version="1.1" id="Layer_1" xmlns="http://www.w3.org/2000/svg" xmlns:xlink="http://www.w3.org/1999/xlink" x="0px" y="0px"
	 viewBox="0 0 200 144" style="enable-background:new 0 0 200 144;" xml:space="preserve">
<style type="text/css">
	.st0{fill:#1E2022;}
	.st1{fill:#BDC5D1;}
</style>
<path class="st0" d="M196,0H4C1.8,0,0,1.8,0,4v136c0,2.2,1.8,4,4,4h192c2.2,0,4-1.8,4-4V4C200,1.8,198.2,0,196,0z"/>
<path class="st1" d="M100,68.3c3.8,0,6.8-3.1,6.8-6.9c0-3.7-3.1-6.7-6.8-6.8c-3.8,0-6.8,3.2-6.8,6.9C93.3,65.3,96.3,68.3,100,68.3z
	 M100,57.6c2.1,0,3.8,1.8,3.8,3.9c0,2.1-1.7,3.7-3.8,3.8c-2.1,0-3.8-1.8-3.8-3.9C96.3,59.3,97.9,57.7,100,57.6z M142.4,99.7
	c-1.4-2.9-4.7-4.4-9.9-4.4c-3.5,0.2-6.5,2.7-7.4,6.1c-4.2-3.3-10.6-0.9-13.2,3.6l-2.9-8.4h2.3c0.8,0,1.5-0.7,1.5-1.5
	c0-0.2,0-0.3-0.1-0.5l-3.1-9.3c1.6-2.6,2.4-6,3.7-8.5c1.5,0.3,4.2,4.8,5.8,8.9c0.3,0.8,1.2,1.1,2,0.8c0.5-0.2,0.8-0.6,0.9-1.1
	c2.9-17.9-5.3-25.3-7.7-27.1c-1.5-9.5-6.2-18.2-13.3-24.7c-0.6-0.5-1.5-0.5-2,0c-7.1,6.5-11.8,15.2-13.3,24.7
	C83.3,60,75.1,67.4,78,85.4c0.1,0.8,0.9,1.4,1.7,1.3c0.5-0.1,1-0.4,1.2-0.9c1.6-4,4.3-8.6,5.8-8.9c1.3,2.5,2,5.9,3.7,8.5l-3.2,9.3
	c-0.3,0.8,0.2,1.7,1,1.9c0.2,0.1,0.3,0.1,0.5,0.1H91l-2.9,8.4c-2.6-4.5-9-6.9-13.2-3.6c-0.8-3.4-3.8-5.9-7.4-6.1
	c-5.2,0-8.6,1.5-9.9,4.4c-0.4,0.8,0,1.7,0.7,2s1.7,0,2-0.7c0.8-1.7,3.2-2.6,7.2-2.6c2.6,0,4.8,2.9,4.9,6.5c0,0.8,0.7,1.5,1.6,1.5
	c0.5,0,1-0.3,1.3-0.8c3.2-5.6,10.7-1.3,11.4,4.1c0.1,0.5,0.5,0.9,1,1.1c0.8,0.3,1.7-0.1,1.9-0.9l4.6-13.2h11.5l4.6,13.2
	c0,0.1,0.1,0.2,0.1,0.2c0.4,0.7,1.3,1,2.1,0.6c0.4-0.2,0.6-0.6,0.7-1c0.8-5.4,8.3-9.7,11.4-4.1c0.4,0.7,1.3,1,2.1,0.6
	c0.5-0.3,0.8-0.7,0.8-1.3c0-3.6,2.2-6.5,4.9-6.5c3.9,0,6.4,0.9,7.2,2.6c0.4,0.8,1.3,1.1,2,0.7C142.4,101.3,142.7,100.4,142.4,99.7
	L142.4,99.7z M119.5,79.5c-1.5-2.6-3.5-5.3-5.6-5.7c0.6-2.9,0.9-5.9,0.9-8.9c0-0.7,0-1.4-0.1-2C117,65.5,119.9,70.7,119.5,79.5
	L119.5,79.5z M100,36.8c3,2.9,5.5,6.3,7.4,10.1H92.6C94.5,43.1,97,39.7,100,36.8z M86.1,73.8c-2.2,0.4-4.2,3.1-5.6,5.7
	c-0.3-8.8,2.5-14,4.8-16.7C85.1,66.5,85.4,70.2,86.1,73.8L86.1,73.8z M88.2,64.9c0-5.1,1-10.2,3-15h17.6c4.5,10.9,3.9,23.3-1.8,33.7
	H93C89.8,77.8,88.2,71.4,88.2,64.9L88.2,64.9z M93.1,86.6h13.7l2.3,6.9H90.8L93.1,86.6z"/>
</svg>
