<?xml version="1.0" encoding="utf-8"?>
<!-- Generator: Adobe Illustrator 26.0.0, SVG Export Plug-In . SVG Version: 6.00 Build 0)  -->
<svg version="1.1" id="Layer_1" xmlns="http://www.w3.org/2000/svg" xmlns:xlink="http://www.w3.org/1999/xlink" x="0px" y="0px"
	 viewBox="0 0 200 144" style="enable-background:new 0 0 200 144;" xml:space="preserve">
<style type="text/css">
	.st0{fill:#1E2022;}
	.st1{fill:#D9DDEA;}
</style>
<path class="st0" d="M196,0H4C1.8,0,0,1.8,0,4v136c0,2.2,1.8,4,4,4h192c2.2,0,4-1.8,4-4V4C200,1.8,198.2,0,196,0z"/>
<g>
	<g>
		<path class="st1" d="M120.9,36.6H79.3c-3.2,0-5.8,2.6-5.8,5.8v43.9c0,1.8,0.9,3.6,2.4,4.7l20.8,15.4c1,0.7,2.1,1.1,3.3,1.1
			c1.2,0,2.3-0.4,3.3-1.1l21-15.4c1.5-1.1,2.3-2.8,2.3-4.7V42.4C126.5,39.2,124,36.7,120.9,36.6z M113.1,71.9l-4.1,4l0.9,5.7
			c0.2,1.3-0.3,2.5-1.3,3.3c-0.5,0.4-1.2,0.6-1.9,0.6c-0.5,0-1-0.1-1.5-0.4l-5.1-2.7l-5.1,2.7c-1.1,0.5-2.3,0.5-3.3-0.2
			c-1.1-0.7-1.6-2-1.3-3.3l1-5.7l-4.2-4c-0.9-0.9-1.2-2.1-0.8-3.3c0.4-1.2,1.4-2,2.6-2.2l5.7-0.9l2.5-5.1c0.6-1.1,1.7-1.8,2.9-1.8
			c1.2,0,2.4,0.7,2.9,1.8l2.6,5.1l5.7,0.9c1.2,0.2,2.2,1.1,2.6,2.2C114.1,69.8,113.9,71.1,113.1,71.9z"/>
	</g>
</g>
</svg>
