<?xml version="1.0" encoding="utf-8"?>
<!-- Generator: Adobe Illustrator 26.0.0, SVG Export Plug-In . SVG Version: 6.00 Build 0)  -->
<svg version="1.1" id="Layer_1" xmlns="http://www.w3.org/2000/svg" xmlns:xlink="http://www.w3.org/1999/xlink" x="0px" y="0px"
	 viewBox="0 0 200 144" style="enable-background:new 0 0 200 144;" xml:space="preserve">
<style type="text/css">
	.st0{fill:#1E2022;}
	.st1{fill:#D9DDEA;}
</style>
<path class="st0" d="M196,0H4C1.8,0,0,1.8,0,4v136c0,2.2,1.8,4,4,4h192c2.2,0,4-1.8,4-4V4C200,1.8,198.2,0,196,0z"/>
<path class="st1" d="M72.6,83.3v7.9c0,4.5,3.7,8.1,8.1,8.1h7.9l5.6,5.6c1.5,1.5,3.6,2.4,5.8,2.4s4.2-0.9,5.8-2.4l5.6-5.6h7.9
	c4.5,0,8.1-3.7,8.1-8.1v-7.9l5.6-5.6c1.5-1.5,2.4-3.6,2.4-5.8s-0.9-4.2-2.4-5.8l-5.6-5.6v-7.9c0-4.5-3.7-8.1-8.1-8.1h-7.9l-5.6-5.6
	c-3.1-3.1-8.4-3.1-11.5,0l-5.6,5.6h-7.9c-4.5,0-8.1,3.7-8.1,8.1v7.9L67,66.2c-1.5,1.5-2.4,3.6-2.4,5.8s0.9,4.2,2.4,5.8L72.6,83.3z
	 M100,54.2c1.2,0,2.2,1,2.2,2.2v31c0,1.2-1,2.2-2.2,2.2c-10.3,0-17.7-7.4-17.7-17.7C82.3,61.7,89.7,54.2,100,54.2z"/>
</svg>
