<?xml version="1.0" encoding="utf-8"?>
<!-- Generator: Adobe Illustrator 26.0.0, SVG Export Plug-In . SVG Version: 6.00 Build 0)  -->
<svg version="1.1" id="Layer_1" xmlns="http://www.w3.org/2000/svg" xmlns:xlink="http://www.w3.org/1999/xlink" x="0px" y="0px"
	 viewBox="0 0 46 47" style="enable-background:new 0 0 46 47;" xml:space="preserve">
<style type="text/css">
	.st0{fill:#5F75EF;}
</style>
<path class="st0" d="M40.1,30.9c-0.3,1.4-0.7,2.8-1.4,4l1.2,2.1h-2.5h-0.3h-0.3c0.6-0.8,1.1-1.7,1.5-2.5c0.6-1.3,1.1-2.7,1.4-4.1
	c0.2-1,0.3-2,0.3-3.1c0-7.3-4.7-13.6-11.3-15.9l-0.2-0.3l-0.2-0.3l-5.2-9.1l-5.2,9.1c1.3-0.5,2.8-0.7,4.1-0.8l1.1-1.9l1.1,1.9
	l0.1,0.2l0.1,0.2c-0.5,0-0.9-0.1-1.4-0.1s-0.9,0-1.4,0.1c-1.5,0.1-2.8,0.5-4.2,0.9c-6.5,2.3-11.3,8.5-11.3,15.9
	c0,1.1,0.1,2.1,0.3,3.1l-0.2,0.3L6,30.9l-5.4,9.4h10.9c-1.1-0.9-2-2-2.8-3.2H6.6L7.8,35l0.1-0.2L8,34.6c0.5,0.9,0.9,1.7,1.5,2.5
	c0.8,1.2,1.8,2.3,3,3.2c2.9,2.4,6.7,3.9,10.7,3.9s7.8-1.5,10.7-3.9h0.3h0.3h10.9L40.1,30.9z M36.3,30.9c-0.6,2.4-1.9,4.5-3.7,6.1
	h-0.3H32H14.2c1.7,1.6,3.9,2.8,6.2,3.2h5.3h0.8h0.6c-1.3,0.5-2.8,0.6-4.2,0.6c-1.5,0-2.8-0.3-4.2-0.6c-2-0.6-3.9-1.7-5.3-3.2
	c-1.7-1.7-2.9-3.8-3.7-6.1l0.1-0.3l0.2-0.3l9.2-15.9c-2.1,0.6-4,1.7-5.6,3.3l-3.5,6.1l-0.4,0.6L9.5,25c0.6-3.3,2.3-6.2,4.8-8.3
	c1.5-1.3,3.3-2.2,5.2-2.7c1.1-0.3,2.2-0.5,3.4-0.5c1.2,0,2.3,0.2,3.4,0.5l0.1,0.3l0.1,0.3l9.2,15.9c0.3-1,0.4-2.1,0.4-3.1
	c0-1.2-0.2-2.3-0.5-3.3L32.1,18l-0.4-0.6l-0.3-0.6c2.5,2,4.2,5,4.8,8.3c0.1,0.7,0.2,1.5,0.2,2.3C36.9,28.5,36.7,29.7,36.3,30.9z"/>
</svg>
