<?xml version="1.0" encoding="utf-8"?>
<!-- Generator: Adobe Illustrator 26.0.0, SVG Export Plug-In . SVG Version: 6.00 Build 0)  -->
<svg version="1.1" id="Layer_1" xmlns="http://www.w3.org/2000/svg" xmlns:xlink="http://www.w3.org/1999/xlink" x="0px" y="0px"
	 viewBox="0 0 155 47" style="enable-background:new 0 0 155 47;" xml:space="preserve">
<style type="text/css">
	.st0{fill:#5F75EF;}
	.st1{fill:#FFFFFF;}
</style>
<path class="st0" d="M148.5,32.2c-0.3,1.5-0.8,3-1.5,4.4l1.3,2.3h-2.7h-0.3H145c0.6-0.9,1.2-1.8,1.6-2.7c0.7-1.4,1.2-2.9,1.5-4.5
	c0.2-1.1,0.3-2.2,0.3-3.4c0-8-5.1-14.8-12.3-17.3l-0.2-0.3l-0.2-0.3L130,0.5l-5.7,9.9c1.4-0.5,3-0.8,4.5-0.9l1.2-2.1l1.2,2.1
	l0.1,0.2l0.1,0.2c-0.5,0-1-0.1-1.5-0.1s-1,0-1.5,0.1c-1.6,0.1-3.1,0.5-4.6,1c-7.1,2.5-12.3,9.3-12.3,17.3c0,1.2,0.1,2.3,0.3,3.4
	l-0.2,0.3l-0.2,0.3l-5.9,10.2h11.9c-1.2-1-2.2-2.2-3.1-3.5H112l1.3-2.3l0.1-0.2l0.1-0.2c0.5,1,1,1.9,1.6,2.7c0.9,1.3,2,2.5,3.3,3.5
	c3.2,2.6,7.3,4.2,11.7,4.2c4.4,0,8.5-1.6,11.7-4.2h0.3h0.3h11.9L148.5,32.2z M144.4,32.2c-0.7,2.6-2.1,4.9-4,6.7h-0.3h-0.3h-19.5
	c1.9,1.7,4.2,3,6.8,3.5h5.8h0.9h0.7c-1.4,0.5-3,0.7-4.6,0.7s-3.1-0.3-4.6-0.7c-2.2-0.7-4.2-1.9-5.8-3.5c-1.9-1.8-3.2-4.1-4-6.7
	l0.1-0.3l0.2-0.3l10-17.3c-2.3,0.7-4.4,1.9-6.1,3.6l-3.8,6.6l-0.4,0.6l-0.3,0.6c0.6-3.6,2.5-6.8,5.2-9c1.6-1.4,3.6-2.4,5.7-2.9
	c1.2-0.3,2.4-0.5,3.7-0.5s2.5,0.2,3.7,0.5l0.1,0.3l0.1,0.3l10,17.3c0.3-1.1,0.4-2.3,0.4-3.4c0-1.3-0.2-2.5-0.5-3.6l-3.8-6.6
	l-0.4-0.6l-0.3-0.6c2.7,2.2,4.6,5.4,5.2,9c0.1,0.8,0.2,1.6,0.2,2.5C145,29.6,144.8,30.9,144.4,32.2z"/>
<path class="st0" d="M44.7,39.1c-0.7,0-1.3,0.3-1.8,0.8s-0.8,1.1-0.8,1.8s0.3,1.3,0.8,1.8s1.1,0.8,1.8,0.8s1.3-0.3,1.8-0.8
	s0.7-1.1,0.7-1.8s-0.2-1.3-0.7-1.8C46,39.4,45.4,39.1,44.7,39.1z"/>
<path class="st0" d="M38.3,39.1c-0.7,0-1.3,0.3-1.8,0.8s-0.8,1.1-0.8,1.8s0.3,1.3,0.8,1.8s1.1,0.8,1.8,0.8s1.3-0.3,1.8-0.8
	s0.7-1.1,0.7-1.8s-0.2-1.3-0.7-1.8S39,39.1,38.3,39.1z"/>
<path class="st0" d="M67.3,15c0.6,0,1.2-0.2,1.6-0.7s0.7-1,0.7-1.7c0-0.6-0.2-1.2-0.7-1.6c-0.4-0.4-1-0.7-1.6-0.7s-1.1,0.2-1.6,0.7
	c-0.5,0.4-0.7,1-0.7,1.6s0.2,1.2,0.7,1.7C66.2,14.8,66.7,15,67.3,15z"/>
<path class="st0" d="M70.3,10.2c0.6,0,1.2-0.2,1.6-0.7s0.7-1,0.7-1.7s-0.2-1.2-0.7-1.6c-0.4-0.4-1-0.7-1.6-0.7s-1.1,0.2-1.6,0.7
	c-0.5,0.4-0.7,1-0.7,1.6s0.2,1.2,0.7,1.7C69.1,9.9,69.7,10.2,70.3,10.2z"/>
<path class="st1" d="M73.2,21c-0.3-1.1-0.6-2.1-0.9-2.9l-5.1,1.4c0.3,0.9,0.6,1.8,0.9,2.8s0.5,2,0.7,3s0.3,1.8,0.3,2.5
	c0,0.8-0.2,1.3-0.5,1.7c-0.3,0.4-0.9,0.7-1.6,0.8s-1.9,0.2-3.4,0.2l0,0l0,0H53l0,0l0,0h-3.1c-0.9,0-1.7-0.1-2.3-0.2
	s-1.1-0.3-1.5-0.5s-0.7-0.5-0.8-0.9C45,28.6,45,28.2,45,27.8c0-0.4,0-0.9,0.1-1.4s0.1-1,0.2-1.5s0.2-0.9,0.2-1.3l-4.8-0.8
	c-0.2,1.7-0.5,3.1-0.8,4.1s-0.7,1.8-1.1,2.3c-0.4,0.5-1,0.9-1.6,1c-0.6,0.2-1.4,0.3-2.3,0.3l0,0l0,0h-3.6l0,0l0,0H20.6l0,0l0,0
	c-1.4,0-2.3-0.2-2.9-0.6s-1.1-1.2-1.4-2.4c-0.1-0.2-0.2-0.7-0.4-1.4c-0.2-0.7-0.5-1.5-0.8-2.3c-0.3-0.9-0.7-1.7-1.2-2.5l-4.8,2.3
	c0.7,1.3,1.2,2.5,1.7,3.8c0.5,1.2,0.7,2.4,0.7,3.4s-0.2,1.9-0.7,2.7c-0.4,0.8-1.1,1.6-1.9,2.3c-0.9,0.8-1.9,1.5-3,2.1
	S3.6,39,2.3,39.5L4.2,44c1.5-0.4,2.9-1,4.3-1.8s2.6-1.6,3.7-2.6s2-2.1,2.7-3.2c0.4-0.7,0.8-1.5,1-2.2c0.4,0.5,1,0.8,1.6,1
	c0.8,0.3,1.6,0.4,2.7,0.4l0,0l0,0h10.6l0,0l0,0h3.6l0,0l0,0c0.9,0,1.7-0.1,2.6-0.2c0.9-0.1,1.8-0.3,2.6-0.7c0.8-0.3,1.6-0.9,2.3-1.6
	c0.2-0.2,0.4-0.4,0.5-0.6c0,0.1,0.1,0.2,0.2,0.3c0.4,0.7,0.9,1.2,1.6,1.6c0.6,0.4,1.4,0.7,2.3,0.9c0.9,0.2,1.9,0.3,3,0.3h3.1l0,0
	l0,0h10.6l0,0l0,0c1.6,0,3.1-0.1,4.5-0.3s2.5-0.6,3.5-1.2c1-0.6,1.7-1.4,2.3-2.4c0.5-1,0.8-2.4,0.8-4.1c0-1.1-0.1-2.2-0.3-3.4
	C73.8,23.2,73.5,22.1,73.2,21z"/>
<path class="st0" d="M73,10.4c-0.6,0-1.1,0.2-1.6,0.7c-0.5,0.4-0.7,1-0.7,1.6s0.2,1.2,0.7,1.7s1,0.7,1.6,0.7s1.2-0.2,1.6-0.7
	s0.7-1,0.7-1.7c0-0.6-0.2-1.2-0.7-1.6S73.7,10.4,73,10.4z"/>
<path class="st1" d="M95.9,25.2c-0.5-0.6-1-1.3-1.7-2c0.2-0.3,0.3-0.6,0.5-0.9c0.4-1,0.8-2.1,1-3.2s0.3-2.3,0.3-3.6
	c0-0.8,0-1.7-0.1-2.6c-0.1-0.9-0.2-1.7-0.3-2.6c-0.1-0.8-0.2-1.5-0.3-1.9l-5.2,0.7c0.1,0.5,0.2,1.2,0.3,1.9c0.1,0.7,0.2,1.5,0.3,2.3
	c0.1,0.8,0.1,1.6,0.1,2.4c0,1.3-0.2,2.6-0.6,3.9c-0.7-0.6-1.5-1.2-2.4-1.8c-2-1.5-4.5-3.1-7.3-4.9L78,16.8c2.1,1.3,4,2.6,5.8,3.9
	c1.6,1.1,3,2.2,4.2,3.2c-0.4,0.5-0.8,1-1.3,1.5c-1.5,1.6-3.5,3.3-6,5.2v4.9h10.8c1.2,0,2.1-0.1,2.9-0.4c0.8-0.3,1.4-0.7,1.9-1.2
	s0.8-1.1,1.1-1.7c0.2-0.6,0.3-1.3,0.3-2c0-0.6-0.1-1.4-0.4-2.2C97.1,27.2,96.6,26.3,95.9,25.2z M92.6,30c-0.2,0.2-0.5,0.3-0.9,0.4
	s-1.1,0.1-1.9,0.1h-2.4c1-0.7,1.9-1.5,2.8-2.2c0.5-0.4,0.9-0.8,1.3-1.3c0.1,0.1,0.2,0.2,0.2,0.3c0.8,0.9,1.1,1.5,1.1,2
	C92.8,29.6,92.7,29.8,92.6,30z"/>
<path class="st0" d="M82.7,11c0.8-0.3,1.5-0.5,2.2-0.7l-0.7-2.5c-0.5,0.2-1.1,0.4-1.7,0.6c-0.2,0.1-0.3,0.1-0.5,0.2
	c-0.1,0-0.2-0.1-0.4-0.2c-0.4-0.2-0.8-0.4-1-0.8c-0.3-0.3-0.4-0.7-0.4-1.1c0-0.3,0.1-0.5,0.4-0.8c0.3-0.2,0.5-0.3,0.9-0.3
	c0.3,0,0.6,0,0.8,0.1c0.2,0,0.5,0.1,0.7,0.1l0.3-2.7c-0.3,0.1-0.6,0-1-0.1c-0.3,0-0.7-0.1-1-0.1c-0.7,0-1.3,0.1-1.9,0.4
	s-1.1,0.6-1.5,1.2c-0.4,0.5-0.6,1.3-0.6,2.1s0.3,1.6,0.9,2.2c0.3,0.3,0.5,0.5,0.8,0.7c-0.4,0.1-1.1,0.2-1.9,0.4l0.6,2.6
	c0.8-0.2,1.7-0.4,2.6-0.6C81,11.5,81.9,11.3,82.7,11z"/>
<polygon class="st1" points="108.2,8.6 103,8.6 103.8,35.5 108.9,35.5 "/>
</svg>
